<?xml version="1.0" encoding="UTF-8" standalone="no"?>
<!-- Created with Inkscape (http://www.inkscape.org/) -->

<svg
   xmlns:dc="http://purl.org/dc/elements/1.1/"
   xmlns:cc="http://creativecommons.org/ns#"
   xmlns:rdf="http://www.w3.org/1999/02/22-rdf-syntax-ns#"
   xmlns:svg="http://www.w3.org/2000/svg"
   xmlns="http://www.w3.org/2000/svg"
   xmlns:sodipodi="http://sodipodi.sourceforge.net/DTD/sodipodi-0.dtd"
   xmlns:inkscape="http://www.inkscape.org/namespaces/inkscape"
   width="210mm"
   height="297mm"
   viewBox="0 0 744.09448819 1052.3622047"
   id="svg2"
   version="1.1"
   inkscape:version="0.91 r13725"
   sodipodi:docname="logo.svg">
  <defs
     id="defs4" />
  <sodipodi:namedview
     id="base"
     pagecolor="#ffffff"
     bordercolor="#666666"
     borderopacity="1.0"
     inkscape:pageopacity="0.0"
     inkscape:pageshadow="2"
     inkscape:zoom="0.70710678"
     inkscape:cx="1576.7617"
     inkscape:cy="2184.4588"
     inkscape:document-units="px"
     inkscape:current-layer="layer1"
     showgrid="false"
     showguides="true"
     inkscape:guide-bbox="true"
     inkscape:snap-bbox="true"
     inkscape:bbox-nodes="true"
     inkscape:snap-center="true"
     inkscape:snap-global="false"
     inkscape:window-width="1366"
     inkscape:window-height="704"
     inkscape:window-x="0"
     inkscape:window-y="27"
     inkscape:window-maximized="1"
     inkscape:snap-smooth-nodes="false"
     inkscape:object-nodes="true"
     inkscape:snap-nodes="false">
    <sodipodi:guide
       position="206.07112,846.50785"
       orientation="0,1"
       id="guide4142" />
    <sodipodi:guide
       position="-398.00011,846.50785"
       orientation="1,0"
       id="guide4146" />
    <sodipodi:guide
       position="419.91904,1172.3687"
       orientation="1,0"
       id="guide4160" />
    <sodipodi:guide
       position="419.91904,1172.3687"
       orientation="0,1"
       id="guide4162" />
    <sodipodi:guide
       position="222.62959,1172.3687"
       orientation="1,0"
       id="guide4164" />
    <sodipodi:guide
       position="419.91904,509.1169"
       orientation="0,1"
       id="guide4187" />
    <sodipodi:guide
       position="461.42858,520.53573"
       orientation="1,0"
       id="guide4189" />
    <sodipodi:guide
       position="440.17398,509.1169"
       orientation="1,0"
       id="guide4191" />
    <sodipodi:guide
       position="1654.6299,1637.6593"
       orientation="0,1"
       id="guide4375" />
    <sodipodi:guide
       position="1684.6241,1749.1465"
       orientation="0,1"
       id="guide4377" />
  </sodipodi:namedview>
  <metadata
     id="metadata7">
    <rdf:RDF>
      <cc:Work
         rdf:about="">
        <dc:format>image/svg+xml</dc:format>
        <dc:type
           rdf:resource="http://purl.org/dc/dcmitype/StillImage" />
        <dc:title></dc:title>
      </cc:Work>
    </rdf:RDF>
  </metadata>
  <g
     inkscape:label="Layer 1"
     inkscape:groupmode="layer"
     id="layer1">
    <g
       id="g4292"
       transform="matrix(0.96481819,0,0,0.96481819,-1055.35,-202.2805)">
      <circle
         r="87.028221"
         cy="49.305973"
         cx="255.44542"
         id="path3340"
         style="fill:#ccb900;fill-opacity:1;fill-rule:evenodd;stroke:none;stroke-width:1;stroke-miterlimit:4;stroke-dasharray:none;stroke-opacity:1" />
      <circle
         style="fill:#920900;fill-opacity:1;fill-rule:evenodd;stroke:none;stroke-width:1;stroke-miterlimit:4;stroke-dasharray:none;stroke-opacity:1"
         id="circle4144"
         cx="438.21085"
         cy="49.305973"
         r="64.569321" />
      <circle
         style="fill:#000000;fill-opacity:1;fill-rule:evenodd;stroke:none;stroke-width:1;stroke-miterlimit:4;stroke-dasharray:none;stroke-opacity:1"
         id="circle4148"
         cx="348.81323"
         cy="-102.29156"
         r="72.055618" />
      <circle
         style="fill:#be7b00;fill-opacity:1;fill-rule:evenodd;stroke:none;stroke-width:1;stroke-miterlimit:4;stroke-dasharray:none;stroke-opacity:1"
         id="circle4156"
         cx="255.44542"
         cy="-252.56569"
         r="75.798775" />
      <circle
         r="75.798775"
         cy="-252.5657"
         cx="438.21085"
         id="circle4158"
         style="fill:#2c0000;fill-opacity:1;fill-rule:evenodd;stroke:none;stroke-width:1;stroke-miterlimit:4;stroke-dasharray:none;stroke-opacity:1" />
      <path
         id="circle4262"
         d="m 261.94531,-320.36523 a 75.798775,75.798775 0 0 0 -75.79883,75.79882 75.798775,75.798775 0 0 0 14.11524,43.88868 75.798775,75.798775 0 0 0 55.18359,23.91015 75.798775,75.798775 0 0 0 75.79883,-75.79883 75.798775,75.798775 0 0 0 -14.11133,-43.88476 75.798775,75.798775 0 0 0 -55.1875,-23.91406 z"
         style="fill:#ffa500;fill-opacity:1;fill-rule:evenodd;stroke:none;stroke-width:1;stroke-miterlimit:4;stroke-dasharray:none;stroke-opacity:1"
         inkscape:connector-curvature="0" />
      <g
         transform="translate(-29,-126)"
         id="g4243">
        <g
           transform="translate(7.7781746,-30.405591)"
           id="g4286">
          <path
             sodipodi:nodetypes="ccccsc"
             inkscape:connector-curvature="0"
             id="path4221"
             d="M 304.64651,-86.508997 -7.2814184,453.76602 c 0.4035714,26.24727 12.2539991,32.99813 35.9483164,20.75477 L 360.29279,-99.872111 c 0,0 60.78483,-124.222759 50.57922,-130.114969 -8.90247,-5.13985 -106.2255,143.478083 -106.2255,143.478083 z"
             style="fill:#b65900;fill-opacity:1;fill-rule:evenodd;stroke:none;stroke-width:1px;stroke-linecap:butt;stroke-linejoin:miter;stroke-opacity:1" />
          <path
             style="fill:#944800;fill-opacity:1;fill-rule:evenodd;stroke:none;stroke-width:1px;stroke-linecap:butt;stroke-linejoin:miter;stroke-opacity:1"
             d="M 312.94275,-59.449934 C 197.06422,148.41081 102.87895,284.66798 9.2658501,463.31959 0.5317842,479.85801 8.1588783,484.99532 28.666898,474.52079 L 360.29279,-99.872111 c 0,0 53.47232,-129.602179 50.57922,-130.114969 -14.02457,-2.48578 -97.92926,170.537146 -97.92926,170.537146 z"
             id="path4223"
             inkscape:connector-curvature="0"
             sodipodi:nodetypes="ccccsc" />
          <path
             sodipodi:nodetypes="cccsc"
             inkscape:connector-curvature="0"
             id="path4225"
             d="m 304.64651,-86.508997 -19.78507,34.268743 c 24.44669,-26.628636 57.02433,-58.259156 75.43135,-47.631857 0,0 60.78483,-124.222759 50.57922,-130.114969 -8.90247,-5.13985 -106.2255,143.478083 -106.2255,143.478083 z"
             style="fill:#040b00;fill-opacity:1;fill-rule:evenodd;stroke:none;stroke-width:1px;stroke-linecap:butt;stroke-linejoin:miter;stroke-opacity:1" />
          <path
             style="fill:#000000;fill-opacity:1;fill-rule:evenodd;stroke:none;stroke-width:1px;stroke-linecap:butt;stroke-linejoin:miter;stroke-opacity:1"
             d="m 318.87793,-85.674788 c 15.76259,-12.651102 32.71047,-20.070472 41.41486,-14.197323 0,0 60.04306,-127.149819 50.57922,-130.114969 -9.19302,21.32815 -53.25895,93.90331 -91.99408,144.312292 z"
             id="path4230"
             inkscape:connector-curvature="0"
             sodipodi:nodetypes="cccc" />
        </g>
      </g>
      <path
         id="circle4266"
         d="m 444.57422,-322 a 75.798775,75.798775 0 0 0 -75.79883,75.79883 75.798775,75.798775 0 0 0 19.3125,50.40429 75.798775,75.798775 0 0 0 50.12305,19.0293 75.798775,75.798775 0 0 0 75.79883,-75.79883 75.798775,75.798775 0 0 0 -19.31836,-50.41211 A 75.798775,75.798775 0 0 0 444.57422,-322 Z"
         style="fill:#6e0000;fill-opacity:1;fill-rule:evenodd;stroke:none;stroke-width:1;stroke-miterlimit:4;stroke-dasharray:none;stroke-opacity:1"
         inkscape:connector-curvature="0" />
      <path
         id="circle4271"
         d="m 355.17773,-167.27539 a 72.055618,72.055618 0 0 0 -72.05664,72.054687 72.055618,72.055618 0 0 0 15.27149,44.314453 72.055618,72.055618 0 0 0 50.41992,20.669922 72.055618,72.055618 0 0 0 72.05664,-72.054692 72.055618,72.055618 0 0 0 -15.27344,-44.3164 72.055618,72.055618 0 0 0 -50.41797,-20.66797 z"
         style="fill:#040b00;fill-opacity:1;fill-rule:evenodd;stroke:none;stroke-width:1;stroke-miterlimit:4;stroke-dasharray:none;stroke-opacity:1"
         inkscape:connector-curvature="0" />
      <path
         id="circle4276"
         d="m 263.22266,-29.943359 a 87.028221,87.028221 0 0 0 -87.02735,87.027343 87.028221,87.028221 0 0 0 22.02539,57.705076 87.028221,87.028221 0 0 0 57.22461,21.54492 87.028221,87.028221 0 0 0 87.0293,-87.027339 87.028221,87.028221 0 0 0 -22.02539,-57.7050785 87.028221,87.028221 0 0 0 -57.22656,-21.5449215 z"
         style="fill:#ffe701;fill-opacity:1;fill-rule:evenodd;stroke:none;stroke-width:1;stroke-miterlimit:4;stroke-dasharray:none;stroke-opacity:1"
         inkscape:connector-curvature="0" />
      <path
         id="circle4281"
         d="M 444.57422,-9.6074219 A 64.569321,64.569321 0 0 0 380.00586,54.962891 64.569321,64.569321 0 0 0 398.23242,99.921875 64.569321,64.569321 0 0 0 438.21094,113.875 64.569321,64.569321 0 0 0 502.7793,49.306641 64.569321,64.569321 0 0 0 484.55273,4.3476562 64.569321,64.569321 0 0 0 444.57422,-9.6074219 Z"
         style="fill:#ea0f00;fill-opacity:1;fill-rule:evenodd;stroke:none;stroke-width:1;stroke-miterlimit:4;stroke-dasharray:none;stroke-opacity:1"
         inkscape:connector-curvature="0" />
      <g
         transform="matrix(0.8660254,0.5,-0.5,0.8660254,36.640127,-326.95218)"
         id="g4203">
        <path
           sodipodi:nodetypes="ccccsc"
           inkscape:connector-curvature="0"
           id="path4201"
           d="m 419.91904,-80.610531 0,623.855851 c 13.47314,22.52902 27.11134,22.45022 41.50954,0 l 0,-663.25179 c 0,0 -9.47018,-137.97248 -21.2546,-137.97248 -10.27969,0 -20.25494,177.368419 -20.25494,177.368419 z"
           style="fill:#b65900;fill-opacity:1;fill-rule:evenodd;stroke:none;stroke-width:1px;stroke-linecap:butt;stroke-linejoin:miter;stroke-opacity:1" />
        <path
           style="fill:#944800;fill-opacity:1;fill-rule:evenodd;stroke:none;stroke-width:1px;stroke-linecap:butt;stroke-linejoin:miter;stroke-opacity:1"
           d="m 440.63333,-61.324817 c 3.57662,237.951947 -9.86163,403.046757 -1.60715,604.570137 0.70529,18.68973 9.8792,19.32522 22.4024,0 l 0,-663.25179 c 0,0 -17.76355,-138.72195 -21.2546,-137.97248 -13.92586,2.98966 0.45935,196.654133 0.45935,196.654133 z"
           id="path4185"
           inkscape:connector-curvature="0"
           sodipodi:nodetypes="ccccsc" />
        <path
           sodipodi:nodetypes="cccsc"
           inkscape:connector-curvature="0"
           id="path4193"
           d="m 419.91904,-80.610531 0,39.570136 c 7.85714,-35.284422 20.25494,-78.966075 41.50954,-78.966075 0,0 -9.47018,-137.97248 -21.2546,-137.97248 -10.27969,0 -20.25494,177.368419 -20.25494,177.368419 z"
           style="fill:#ea0f00;fill-opacity:1;fill-rule:evenodd;stroke:none;stroke-width:1px;stroke-linecap:butt;stroke-linejoin:miter;stroke-opacity:1" />
        <path
           style="fill:#950900;fill-opacity:1;fill-rule:evenodd;stroke:none;stroke-width:1px;stroke-linecap:butt;stroke-linejoin:miter;stroke-opacity:1"
           d="m 431.77933,-83.607453 c 14.36639,-34.450347 20.4954,-34.696627 29.64925,-36.399017 -1.25824,-25.5916 -10.2965,-137.75605 -21.2546,-137.97248 1.49613,-0.0444 -5.03074,39.90766 -8.39465,174.371497 z"
           id="path4232"
           inkscape:connector-curvature="0"
           sodipodi:nodetypes="cccc" />
      </g>
      <g
         transform="translate(25.781746,-50.514718)"
         id="g4249">
        <path
           style="fill:#b65900;fill-opacity:1;fill-rule:evenodd;stroke:none;stroke-width:1px;stroke-linecap:butt;stroke-linejoin:miter;stroke-opacity:1"
           d="M 480.41305,-70.346557 168.48512,469.92846 c 0.40358,26.24727 12.254,32.99813 35.94832,20.75477 L 536.05933,-83.709671 c 0,0 60.78483,-124.222759 50.57922,-130.114969 -8.90247,-5.13985 -106.2255,143.478083 -106.2255,143.478083 z"
           id="path4210"
           inkscape:connector-curvature="0"
           sodipodi:nodetypes="ccccsc" />
        <path
           sodipodi:nodetypes="ccccsc"
           inkscape:connector-curvature="0"
           id="path4212"
           d="M 488.70929,-43.287494 C 372.83076,164.57325 278.64549,300.83042 185.03239,479.48203 c -8.73406,16.53842 -1.10697,21.67573 19.40105,11.2012 L 536.05933,-83.709671 c 0,0 53.31211,-129.553299 50.57922,-130.114969 -13.95156,-2.86733 -97.92926,170.537146 -97.92926,170.537146 z"
           style="fill:#944800;fill-opacity:1;fill-rule:evenodd;stroke:none;stroke-width:1px;stroke-linecap:butt;stroke-linejoin:miter;stroke-opacity:1" />
        <path
           style="fill:#ffa500;fill-opacity:1;fill-rule:evenodd;stroke:none;stroke-width:1px;stroke-linecap:butt;stroke-linejoin:miter;stroke-opacity:1"
           d="m 480.41305,-70.346557 -19.78507,34.268743 c 24.44669,-26.628636 57.02433,-58.259157 75.43135,-47.631857 0,0 60.78483,-124.222759 50.57922,-130.114969 -8.90247,-5.13985 -106.2255,143.478083 -106.2255,143.478083 z"
           id="path4214"
           inkscape:connector-curvature="0"
           sodipodi:nodetypes="cccsc" />
        <path
           sodipodi:nodetypes="cccc"
           inkscape:connector-curvature="0"
           id="path4234"
           d="m 495.13274,-69.590377 c 21.91219,-14.362996 36.48701,-15.74802 40.92659,-14.119294 0,0 60.78483,-124.222759 50.57922,-130.114969 -12.67479,18.48942 -46.7876,65.40077 -91.50581,144.234263 z"
           style="fill:#c98200;fill-opacity:1;fill-rule:evenodd;stroke:none;stroke-width:1px;stroke-linecap:butt;stroke-linejoin:miter;stroke-opacity:1" />
      </g>
    </g>
    <text
       xml:space="preserve"
       style="font-style:italic;font-variant:normal;font-weight:normal;font-stretch:normal;font-size:437.67419434px;line-height:125%;font-family:'Bookman URW';-inkscape-font-specification:'Bookman URW Italic';letter-spacing:0px;word-spacing:0px;fill:#743900;fill-opacity:1;stroke:none;stroke-width:1px;stroke-linecap:butt;stroke-linejoin:miter;stroke-opacity:1;"
       x="-1580.714"
       y="518.83331"
       id="text4320"
       sodipodi:linespacing="125%"><tspan
         sodipodi:role="line"
         id="tspan4322"
         x="-1580.714"
         y="518.83331">eScriba</tspan></text>
    <g
       id="g4656"
       transform="translate(-42.426407,-393.15137)">
      <g
         transform="matrix(0.9637426,0,0,1,54.584809,0)"
         id="g4639">
        <rect
           style="fill:#ffc600;fill-opacity:1;fill-rule:evenodd;stroke:none;stroke-width:1;stroke-miterlimit:4;stroke-dasharray:none;stroke-opacity:1"
           id="rect4379"
           width="830.09717"
           height="158.25243"
           x="1187.8145"
           y="-925.91046" />
        <rect
           y="-996.7843"
           x="1187.8145"
           height="70.873787"
           width="830.09717"
           id="rect4381"
           style="fill:#ffda69;fill-opacity:1;fill-rule:evenodd;stroke:none;stroke-width:1;stroke-miterlimit:4;stroke-dasharray:none;stroke-opacity:1" />
        <rect
           style="fill:#a87e00;fill-opacity:1;fill-rule:evenodd;stroke:none;stroke-width:1;stroke-miterlimit:4;stroke-dasharray:none;stroke-opacity:1"
           id="rect4385"
           width="830.09717"
           height="70.873787"
           x="1187.8145"
           y="-767.65808" />
      </g>
      <g
         transform="matrix(1.0000022,0,0,1.0000022,-0.00285803,0.00173846)"
         id="g4644">
        <path
           inkscape:connector-curvature="0"
           style="font-style:normal;font-variant:normal;font-weight:bold;font-stretch:normal;font-size:medium;line-height:125%;font-family:sans-serif;-inkscape-font-specification:'sans-serif Bold';letter-spacing:0px;word-spacing:0px;fill:#ffdf70;fill-opacity:1;stroke:none;stroke-width:1px;stroke-linecap:butt;stroke-linejoin:miter;stroke-opacity:1"
           d="m 1721.1293,-907.67227 a 3.6070423,3.6070423 0 0 0 -3.6062,3.6062 l 0,112.70521 a 3.6070423,3.6070423 0 0 0 3.6062,3.60619 l 25.9312,0 a 3.6070423,3.6070423 0 0 0 3.6062,-3.60619 l 0,-2.58448 c 2.0831,1.79973 4.2781,3.33738 6.603,4.55149 a 3.6070423,3.6070423 0 0 0 0.028,0.0141 c 4.9097,2.50941 10.5125,3.72688 16.6352,3.72688 10.9487,0 20.4289,-4.58407 27.4276,-13.21402 a 3.6070423,3.6070423 0 0 0 0.01,-0.0103 c 7.0008,-8.68524 10.4324,-19.84849 10.4324,-32.97266 0,-13.11955 -3.43,-24.2628 -10.4324,-32.90227 -6.996,-8.67928 -16.4798,-13.29445 -27.4337,-13.29445 -6.1247,0 -11.7344,1.24275 -16.6452,3.8033 -2.3322,1.19312 -4.5335,2.71562 -6.621,4.50724 l 0,-34.33027 a 3.6070423,3.6070423 0 0 0 -3.6063,-3.60619 l -25.9312,0 z m -280.678,2.60861 c -13.5719,0 -24.4896,3.02097 -32.2948,9.52535 -7.7977,6.4981 -11.7277,16.07198 -11.7277,27.61666 0,9.29081 2.8042,17.22715 8.4915,23.02496 a 3.6070423,3.6070423 0 0 0 0.012,0.0121 c 5.7399,5.79515 14.3337,9.66283 25.5652,12.0696 l -0.024,-0.004 10.7925,2.38938 c 6.336,1.39766 10.3963,3.17771 11.5587,4.1593 a 3.6070423,3.6070423 0 0 0 0.03,0.0262 c 1.3827,1.14227 2.0233,2.45272 2.0233,5.04223 0,2.73362 -0.7772,4.14074 -3.1617,5.63557 -2.3735,1.48786 -6.3824,2.49195 -12.0656,2.49195 -5.6089,0 -11.4929,-0.85951 -17.671,-2.6086 l -0.01,-0.002 c -6.1483,-1.80356 -12.5875,-4.47828 -19.3061,-8.04907 a 3.6070423,3.6070423 0 0 0 -5.2997,3.18382 l 0,23.53984 a 3.6070423,3.6070423 0 0 0 2.3532,3.38093 c 7.0855,2.62611 14.1867,4.61444 21.2992,5.95737 7.1188,1.34409 14.2275,2.01931 21.3134,2.01931 15.0144,0 26.6789,-2.94677 34.6682,-9.51329 8.0283,-6.60819 11.9609,-16.79814 11.9609,-29.44088 0,-9.75 -2.8362,-17.89519 -8.7007,-23.59213 -5.8808,-5.71282 -15.0507,-9.47062 -27.4416,-11.95897 l 0,0 -11.8645,-2.38737 -0.012,-0.002 c -5.3804,-1.10487 -8.9464,-2.52363 -10.2716,-3.4815 -1.2801,-1.00114 -1.7558,-1.92855 -1.7558,-3.92196 0,-2.87117 0.7354,-4.13114 2.9747,-5.42036 2.2455,-1.29285 6.6442,-2.27274 12.9767,-2.27274 4.6976,0 9.7538,0.63493 15.1689,1.93082 5.4081,1.29427 10.9911,3.22147 16.7497,5.79646 a 3.6070423,3.6070423 0 0 0 5.0786,-3.29244 l 0,-22.88818 a 3.6070423,3.6070423 0 0 0 -2.6791,-3.48552 c -6.8322,-1.81868 -13.46,-3.1754 -19.8893,-4.06677 -0.01,-10e-4 -0.017,-0.003 -0.026,-0.004 -6.4295,-0.93848 -12.7048,-1.4099 -18.8214,-1.4099 z m -100.2453,27.01731 c -14.6545,0 -26.731,4.05525 -35.5089,12.35721 a 3.6070423,3.6070423 0 0 0 -0.01,0.008 c -8.7265,8.30363 -13.0711,19.87652 -13.0711,33.83147 0,14.19632 4.4237,25.86898 13.3286,34.0849 a 3.6070423,3.6070423 0 0 0 0.016,0.0141 c 8.9565,8.1615 21.4025,12.09776 36.6915,12.09776 6.3692,0 12.7359,-0.62969 19.0909,-1.88054 l 0,0 c 6.3394,-1.19963 12.6683,-2.99522 18.9783,-5.38013 a 3.6070423,3.6070423 0 0 0 2.3311,-3.37289 l 0,-19.98995 a 3.6070423,3.6070423 0 0 0 -5.3299,-3.16774 c -5.831,3.1721 -11.4776,5.52457 -16.9308,7.08367 -5.4072,1.51146 -10.6488,2.25462 -15.7522,2.25463 -6.2192,0 -10.5777,-1.38361 -13.5237,-3.76308 -2.1325,-1.72235 -3.6383,-4.05816 -4.5254,-7.27675 l 56.2933,0 a 3.6070423,3.6070423 0 0 0 3.6062,-3.60619 l 0,-7.38738 c 0,-13.55892 -4.1806,-24.93836 -12.5644,-33.32664 l 0,-0.004 c -8.3369,-8.38747 -19.6495,-12.57643 -33.1194,-12.57643 z m 209.1855,0 c -15.2451,0 -27.7156,3.99039 -36.7559,12.23251 -7e-4,6.4e-4 0,10e-4 0,0.002 -9.0481,8.20271 -13.5679,19.84535 -13.5679,33.96221 0,14.11796 4.5174,25.77734 13.5599,34.02657 a 3.6070423,3.6070423 0 0 0 0.01,0.008 c 9.0426,8.19654 21.5091,12.16212 36.7559,12.16212 4.4142,0 8.8055,-0.40759 13.1637,-1.21681 4.412,-0.76196 8.7484,-1.92824 13.0008,-3.4976 a 3.6070423,3.6070423 0 0 0 2.3572,-3.38295 l 0,-21.22285 a 3.6070423,3.6070423 0 0 0 -5.7984,-2.86404 c -2.7784,2.12714 -5.7838,3.7163 -9.0749,4.79888 a 3.6070423,3.6070423 0 0 0 -0.014,0.004 c -3.238,1.07936 -6.6772,1.62511 -10.3761,1.62511 -6.5363,0 -11.0286,-1.76789 -14.3383,-5.18705 -3.2634,-3.46952 -5.0161,-8.3187 -5.0161,-15.25343 0,-6.9458 1.7544,-11.7683 5.014,-15.18505 3.316,-3.47376 7.8023,-5.25745 14.3404,-5.25745 3.4499,0 6.7253,0.52049 9.8834,1.55874 a 3.6070423,3.6070423 0 0 0 0.014,0.004 c 3.2053,1.03954 6.4442,2.65807 9.7224,4.90346 a 3.6070423,3.6070423 0 0 0 5.6437,-2.97465 l 0,-21.15045 a 3.6070423,3.6070423 0 0 0 -2.3713,-3.38899 c -4.2811,-1.56135 -8.6005,-2.72342 -12.9525,-3.48551 l -0.01,-0.002 c -4.3244,-0.81349 -8.725,-1.21883 -13.1898,-1.21883 z m 100.3902,0 c -6.5209,0 -12.3704,1.34388 -17.3371,4.15528 -8e-4,4.4e-4 0,0.002 0,0.002 -2.1667,1.21756 -4.1737,2.7896 -6.0719,4.59573 l 0,-3.19187 a 3.6070423,3.6070423 0 0 0 -3.6062,-3.6062 l -25.9312,0 a 3.6070423,3.6070423 0 0 0 -3.6063,3.6062 l 0,81.12434 a 3.6070423,3.6070423 0 0 0 3.6063,3.60619 l 25.9312,0 a 3.6070423,3.6070423 0 0 0 3.6062,-3.60619 l 0,-37.37533 c 0,-7.42602 1.654,-12.59984 4.5112,-15.9996 2.919,-3.46394 6.7825,-5.16493 12.671,-5.16493 1.9886,0 3.9463,0.2314 5.8971,0.69791 a 3.6070423,3.6070423 0 0 0 0.089,0.0201 c 1.9837,0.42201 3.9916,1.10047 6.0318,2.0555 a 3.6070423,3.6070423 0 0 0 5.1348,-3.27835 l -0.072,-23.46744 a 3.6070423,3.6070423 0 0 0 -3.1596,-3.56597 c -1.949,-0.24356 -3.4401,-0.39172 -4.6219,-0.45052 -1.0732,-0.0995 -2.0977,-0.15688 -3.0692,-0.15688 z m 212.2286,0 c -5.7467,0 -11.4933,0.37088 -17.2365,1.11223 -0.01,10e-4 -0.021,0.003 -0.03,0.004 -5.7339,0.69326 -11.4416,1.73044 -17.1218,3.11344 a 3.6070423,3.6070423 0 0 0 -2.7535,3.50362 l 0,19.77475 a 3.6070423,3.6070423 0 0 0 5.3238,3.17177 c 3.8105,-2.0622 7.9398,-3.61393 12.4257,-4.65608 4.4804,-1.0409 9.3711,-1.57281 14.6841,-1.57281 6.5188,0 11.0185,1.031 13.2905,2.38737 a 3.6070423,3.6070423 0 0 0 0.034,0.0201 c 1.7602,1.02465 2.4619,2.354 2.7614,4.28601 l -11.3777,0 c -14.3853,0 -25.3257,2.17579 -32.8781,7.2848 a 3.6070423,3.6070423 0 0 0 -0.01,0.006 c -7.5089,5.11717 -11.3536,13.57715 -11.3536,23.91392 0,8.62457 3.0465,16.16427 8.9542,21.74378 a 3.6070423,3.6070423 0 0 0 0.024,0.0221 c 5.9651,5.52728 13.85,8.27837 22.9506,8.27837 6.658,0 12.5364,-1.18795 17.504,-3.72687 a 3.6070423,3.6070423 0 0 0 0.028,-0.0141 c 2.2885,-1.19518 4.4308,-2.73513 6.4582,-4.53338 l 0,2.56637 a 3.6070423,3.6070423 0 0 0 3.6062,3.6062 l 26.1485,0 a 3.6070423,3.6070423 0 0 0 3.6061,-3.6062 l 0,-46.28321 c 0,-13.58401 -3.4656,-24.15775 -10.9856,-30.79648 -7.4773,-6.69273 -18.9488,-9.60579 -34.0526,-9.60579 z m -191.8745,1.95495 a 3.6070423,3.6070423 0 0 0 -3.6063,3.6062 l 0,81.12434 a 3.6070423,3.6070423 0 0 0 3.6063,3.60619 l 25.9311,0 a 3.6070423,3.6070423 0 0 0 3.6063,-3.60619 l 0,-81.12434 a 3.6070423,3.6070423 0 0 0 -3.6063,-3.6062 l -25.9311,0 z m -330.0746,22.49599 c 3.8464,0 6.412,1.0932 8.5941,3.42317 a 3.6070423,3.6070423 0 0 0 0.04,0.0422 c 1.4732,1.52233 2.2781,3.49493 2.7735,5.76429 l -24.7687,0 c 0.8565,-2.41534 1.9479,-4.46828 3.5197,-5.87088 a 3.6070423,3.6070423 0 0 0 0.023,-0.0201 c 2.4297,-2.20544 5.4791,-3.3387 9.819,-3.3387 z m 424.2379,1.59293 c 4.675,0 7.4765,1.40404 9.7406,4.5736 a 3.6070423,3.6070423 0 0 0 0.016,0.0241 c 2.3056,3.17507 3.7308,8.28742 3.7308,15.55512 0,7.26768 -1.4249,12.37758 -3.7308,15.5531 a 3.6070423,3.6070423 0 0 0 -0.016,0.0241 c -2.2641,3.16957 -5.0656,4.57362 -9.7406,4.57362 -4.6644,0 -7.5438,-1.41867 -9.9015,-4.60177 -2.317,-3.23956 -3.7309,-8.34462 -3.7309,-15.54908 0,-7.21303 1.418,-12.29643 3.7249,-15.47668 l 0,-0.002 c 8e-4,-0.001 0,-0.003 0,-0.004 2.3669,-3.24192 5.2417,-4.67015 9.9035,-4.67015 z m 99.5213,27.74136 9.8191,0 c -0.1237,4.16033 -1.3813,7.32914 -3.9542,10.05631 -2.7221,2.83768 -5.6853,4.09896 -9.7024,4.09896 -3.3258,-10e-6 -5.4474,-0.74966 -6.8664,-1.90868 -1.3617,-1.19488 -1.9871,-2.52368 -1.9871,-4.98794 0,-2.65649 0.6713,-3.89506 2.4658,-5.11665 1.8481,-1.22723 5.2343,-2.142 10.2252,-2.142 z"
           id="path4554" />
        <g
           id="g4366"
           transform="matrix(1.2447253,0,0,1.2447253,-360.59119,-94.937463)">
          <path
             d="m 1400.2122,-592.26133 0,5.93555 -48.7064,0 q 0.7564,7.33216 5.2954,10.99824 4.539,3.66608 12.6858,3.66608 6.5757,0 13.4423,-1.92033 6.9248,-1.97852 14.1988,-5.93556 l 0,16.06092 q -7.3904,2.79321 -14.7807,4.18981 -7.3904,1.45479 -14.7807,1.45479 -17.6903,0 -27.5247,-8.96153 -9.7762,-9.01971 -9.7762,-25.25521 0,-15.94453 9.6016,-25.08063 9.6598,-9.13611 26.5354,-9.13611 15.3627,0 24.5569,9.25249 9.2525,9.25248 9.2525,24.73149 z m -21.4145,-6.92482 q 0,-5.93556 -3.4915,-9.54344 -3.4333,-3.66608 -9.0197,-3.66608 -6.052,0 -9.8345,3.43331 -3.7824,3.37512 -4.7135,9.77621 l 27.0592,0 z"
             style="font-style:normal;font-variant:normal;font-weight:bold;font-stretch:normal;font-size:medium;line-height:125%;font-family:sans-serif;-inkscape-font-specification:'sans-serif Bold';letter-spacing:0px;word-spacing:0px;fill:#000000;fill-opacity:1;stroke:none;stroke-width:1px;stroke-linecap:butt;stroke-linejoin:miter;stroke-opacity:1"
             id="path4341"
             inkscape:connector-curvature="0" />
          <path
             d="m 1477.3163,-643.64463 0,18.38858 q -7.1576,-3.20054 -13.966,-4.82991 -6.8085,-1.62937 -12.8604,-1.62937 -8.0305,0 -11.8711,2.21129 -3.8407,2.21128 -3.8407,6.86662 0,3.49151 2.5605,5.47002 2.6186,1.92033 9.427,3.31693 l 9.5435,1.92033 q 14.4897,2.90959 20.5998,8.84514 6.1102,5.93556 6.1102,16.87561 0,14.37335 -8.5542,21.41455 -8.496,6.98301 -26.0117,6.98301 -8.2632,0 -16.5847,-1.57118 -8.3214,-1.57117 -16.6428,-4.65533 l 0,-18.91232 q 8.3214,4.42257 16.0609,6.69205 7.7977,2.21129 15.0135,2.21129 7.3321,0 11.231,-2.44406 3.8988,-2.44405 3.8988,-6.983 0,-4.07342 -2.6768,-6.28471 -2.6186,-2.21129 -10.5327,-3.95704 l -8.6706,-1.92032 q -13.0349,-2.79321 -19.0868,-8.90334 -5.9938,-6.11013 -5.9938,-16.46826 0,-12.97676 8.3796,-19.95976 8.3796,-6.98301 24.0914,-6.98301 7.1576,0 14.7225,1.10564 7.5649,1.04745 15.6536,3.20055 z"
             style="font-style:normal;font-variant:normal;font-weight:bold;font-stretch:normal;font-size:medium;line-height:125%;font-family:sans-serif;-inkscape-font-specification:'sans-serif Bold';letter-spacing:0px;word-spacing:0px;fill:#000000;fill-opacity:1;stroke:none;stroke-width:1px;stroke-linecap:butt;stroke-linejoin:miter;stroke-opacity:1"
             id="path4343"
             inkscape:connector-curvature="0" />
          <path
             d="m 1554.4785,-622.63742 0,16.99199 q -4.248,-2.90959 -8.5542,-4.30619 -4.248,-1.3966 -8.8451,-1.3966 -8.7288,0 -13.6169,5.12087 -4.8299,5.06268 -4.8299,14.19878 0,9.1361 4.8299,14.25698 4.8881,5.06268 13.6169,5.06268 4.8881,0 9.2525,-1.4548 4.4226,-1.45479 8.1468,-4.30618 l 0,17.05017 q -4.8881,1.80395 -9.9508,2.67682 -5.0044,0.93107 -10.0671,0.93107 -17.6321,0 -27.5829,-9.01972 -9.9508,-9.07791 -9.9508,-25.19702 0,-16.11911 9.9508,-25.13883 9.9508,-9.07791 27.5829,-9.07791 5.1208,0 10.0671,0.93107 5.0045,0.87288 9.9508,2.67682 z"
             style="font-style:normal;font-variant:normal;font-weight:bold;font-stretch:normal;font-size:medium;line-height:125%;font-family:sans-serif;-inkscape-font-specification:'sans-serif Bold';letter-spacing:0px;word-spacing:0px;fill:#000000;fill-opacity:1;stroke:none;stroke-width:1px;stroke-linecap:butt;stroke-linejoin:miter;stroke-opacity:1"
             id="path4345"
             inkscape:connector-curvature="0" />
          <path
             d="m 1620.9917,-606.92565 q -2.735,-1.28022 -5.4701,-1.86214 -2.6768,-0.64011 -5.4118,-0.64011 -8.0304,0 -12.3948,5.17907 -4.3062,5.12087 -4.3062,14.72251 l 0,30.02693 -20.8327,0 0,-65.17474 20.8327,0 0,10.70728 q 4.0152,-6.40109 9.1943,-9.31068 5.2372,-2.96778 12.5112,-2.96778 1.0475,0 2.2695,0.11639 1.222,0.0582 3.5497,0.34915 l 0.058,18.85412 z"
             style="font-style:normal;font-variant:normal;font-weight:bold;font-stretch:normal;font-size:medium;line-height:125%;font-family:sans-serif;-inkscape-font-specification:'sans-serif Bold';letter-spacing:0px;word-spacing:0px;fill:#000000;fill-opacity:1;stroke:none;stroke-width:1px;stroke-linecap:butt;stroke-linejoin:miter;stroke-opacity:1"
             id="path4347"
             inkscape:connector-curvature="0" />
          <path
             id="path4364"
             d="m 1631.4662,-624.67413 20.8326,0 0,65.17474 -20.8326,0 0,-65.17474 z"
             style="font-style:normal;font-variant:normal;font-weight:bold;font-stretch:normal;font-size:medium;line-height:125%;font-family:sans-serif;-inkscape-font-specification:'sans-serif Bold';letter-spacing:0px;word-spacing:0px;fill:#000000;fill-opacity:1;stroke:none;stroke-width:1px;stroke-linecap:butt;stroke-linejoin:miter;stroke-opacity:1"
             inkscape:connector-curvature="0" />
          <path
             d="m 1707.1154,-572.94168 q 6.6921,0 10.1836,-4.88811 3.5497,-4.8881 3.5497,-14.19878 0,-9.31067 -3.5497,-14.19878 -3.4915,-4.88811 -10.1836,-4.88811 -6.692,0 -10.2999,4.9463 -3.5497,4.88811 -3.5497,14.14059 0,9.25249 3.5497,14.19878 3.6079,4.88811 10.2999,4.88811 z m -13.8496,-42.18901 q 4.3062,-5.70278 9.5435,-8.3796 5.2372,-2.73502 12.0456,-2.73502 12.0457,0 19.7852,9.60164 7.7395,9.54344 7.7395,24.6151 0,15.07166 -7.7395,24.6733 -7.7395,9.54344 -19.7852,9.54344 -6.8084,0 -12.0456,-2.67682 -5.2373,-2.73501 -9.5435,-8.4378 l 0,9.42706 -20.8326,0 0,-90.54633 20.8326,0 0,34.91503 z"
             style="font-style:normal;font-variant:normal;font-weight:bold;font-stretch:normal;font-size:medium;line-height:125%;font-family:sans-serif;-inkscape-font-specification:'sans-serif Bold';letter-spacing:0px;word-spacing:0px;fill:#000000;fill-opacity:1;stroke:none;stroke-width:1px;stroke-linecap:butt;stroke-linejoin:miter;stroke-opacity:1"
             id="path4351"
             inkscape:connector-curvature="0" />
          <path
             d="m 1787.0709,-588.82802 q -6.5175,0 -9.8344,2.21128 -3.2588,2.21129 -3.2588,6.51748 0,3.95704 2.6187,6.22651 2.6768,2.21129 7.3903,2.21129 5.8774,0 9.8926,-4.18981 4.0152,-4.24799 4.0152,-10.59089 l 0,-2.38586 -10.8236,0 z m 31.8308,-7.85589 0,37.18452 -21.0072,0 0,-9.65983 q -4.1898,5.93556 -9.427,8.67057 -5.2373,2.67682 -12.744,2.67682 -10.1254,0 -16.4683,-5.87736 -6.2847,-5.93556 -6.2847,-15.36262 0,-11.46377 7.8559,-16.81741 7.9141,-5.35364 24.7897,-5.35364 l 12.2784,0 0,-1.62937 q 0,-4.9463 -3.8988,-7.21577 -3.8989,-2.32767 -12.1621,-2.32767 -6.692,0 -12.453,1.33841 -5.761,1.33841 -10.7073,4.01523 l 0,-15.88635 q 6.6921,-1.62937 13.4423,-2.44405 6.7502,-0.87288 13.5005,-0.87288 17.6321,0 25.4298,6.98301 7.8558,6.92482 7.8558,22.57839 z"
             style="font-style:normal;font-variant:normal;font-weight:bold;font-stretch:normal;font-size:medium;line-height:125%;font-family:sans-serif;-inkscape-font-specification:'sans-serif Bold';letter-spacing:0px;word-spacing:0px;fill:#000000;fill-opacity:1;stroke:none;stroke-width:1px;stroke-linecap:butt;stroke-linejoin:miter;stroke-opacity:1"
             id="path4353"
             inkscape:connector-curvature="0" />
        </g>
        <path
           inkscape:connector-curvature="0"
           style="font-style:normal;font-variant:normal;font-weight:bold;font-stretch:normal;font-size:medium;line-height:125%;font-family:sans-serif;-inkscape-font-specification:'sans-serif Bold';letter-spacing:0px;word-spacing:0px;fill:#292929;fill-opacity:1;stroke:none;stroke-width:1px;stroke-linecap:butt;stroke-linejoin:miter;stroke-opacity:1"
           d="m 1723.7041,-901.23421 0,109.87335 23.3549,0 0,-11.73372 c 0.836,1.10724 1.6959,2.14101 2.5744,3.11343 l 0,-0.28157 c 0.4381,0.58033 0.8816,1.14214 1.3315,1.68543 2.4962,2.51149 5.1531,4.51208 7.9746,5.98552 4.3459,2.22127 9.3422,3.33267 14.9919,3.33267 9.9957,0 18.2056,-3.96123 24.628,-11.88054 6.4223,-7.96759 9.6339,-18.20326 9.6339,-30.70998 0,-12.50672 -3.2116,-22.72029 -9.6339,-30.6396 -0.073,-0.0907 -0.1498,-0.17384 -0.2233,-0.26348 -5.9552,-5.89842 -13.2298,-8.85559 -21.8302,-8.85559 -5.6497,0 -10.6461,1.13349 -14.992,3.40306 -4.3459,2.22127 -8.3071,5.69815 -11.8805,10.43042 l 0,-5.94128 c -0.8785,0.96975 -1.7384,2.00222 -2.5744,3.10942 l 0,-40.62754 -23.3549,0 z m -280.6779,2.6086 c -13.0379,0 -23.0344,2.89606 -29.9879,8.69068 -6.9536,5.79461 -10.4305,14.07681 -10.4305,24.84514 0,7.41948 1.859,13.5236 5.5652,18.31659 5.0446,4.73579 12.7322,8.21521 23.0793,10.43242 l 10.7924,2.38938 c 6.5672,1.44866 10.9384,3.09061 13.1114,4.9256 0.8501,0.70222 1.533,1.52096 2.0576,2.44971 0.1747,0.12724 0.3639,0.25298 0.5168,0.38215 2.2212,1.83496 3.3307,4.44362 3.3307,7.82381 0,3.76649 -1.6159,6.66256 -4.8511,8.69067 -3.2355,2.02812 -7.8961,3.04304 -13.9804,3.04304 -5.9877,0 -12.2179,-0.91845 -18.6886,-2.75342 -6.4224,-1.88325 -13.0847,-4.65872 -19.9899,-8.32865 l 0,21.63317 c 6.0475,2.10476 12.094,3.72745 18.1416,4.86926 6.9052,1.30379 13.7845,1.95696 20.6416,1.95696 14.5347,0 25.3271,-2.89806 32.3773,-8.69268 7.0984,-5.84291 10.6496,-14.72804 10.6496,-26.65528 0,-7.64805 -1.8074,-13.81703 -5.4062,-18.51771 -5.1111,-4.75124 -13.5277,-8.30832 -25.2675,-10.66573 l -11.8786,-2.38939 c -5.6497,-1.15892 -9.5608,-2.5356 -11.7337,-4.12912 -0.9507,-0.73455 -1.6769,-1.60231 -2.2024,-2.58849 -0.1219,-0.0815 -0.2594,-0.16077 -0.372,-0.24337 -2.1248,-1.6418 -3.1879,-3.91283 -3.1879,-6.81014 0,-3.86309 1.5937,-6.71091 4.7808,-8.54586 3.187,-1.83497 8.1128,-2.75342 14.7768,-2.75342 5.0219,0 10.3578,0.67728 16.0076,2.02936 5.6497,1.35208 11.4438,3.35582 17.3833,6.01167 l 0,-20.70395 c -5.7983,-1.45349 -11.4423,-2.57952 -16.9106,-3.33669 -6.2775,-0.91748 -12.3852,-1.37571 -18.3247,-1.37571 z m -100.2475,27.01732 c -14.0036,0 -25.013,3.79038 -33.0289,11.37168 -7.9675,7.58129 -11.9509,17.9878 -11.951,31.21885 10e-5,11.38659 2.91,20.62429 8.7048,27.73332 0.2946,0.29087 0.583,0.58651 0.889,0.86886 8.1607,7.43643 19.5822,11.15648 34.2618,11.15648 6.1327,0 12.2645,-0.60494 18.3971,-1.81214 6.1326,-1.15892 12.2664,-2.89737 18.3991,-5.21522 l 0,-15.80652 c -5.1395,2.61391 -10.1745,4.62834 -15.1006,6.0358 -5.698,1.59353 -11.2751,2.38938 -16.7317,2.38939 -6.7604,0 -12.0239,-1.52139 -15.7904,-4.56356 -1.1345,-0.91625 -2.109,-1.98773 -2.9586,-3.17981 -3.523,-3.0382 -5.6017,-7.47453 -6.2068,-13.34071 l 60.6255,0 0,-7.38737 c 0,-11.37976 -3.0203,-20.72676 -9.0466,-28.05111 -7.6183,-7.6097 -17.7711,-11.41794 -30.4627,-11.41794 z m 209.1856,0 c -14.6314,0 -26.0749,3.76628 -34.3322,11.29928 -8.2574,7.48472 -12.3854,17.91533 -12.3854,31.29125 0,11.22395 2.9188,20.38048 8.7329,27.48995 0.3542,0.3502 0.707,0.70142 1.0781,1.03983 8.2572,7.48471 19.7007,11.22888 34.3322,11.22888 4.2011,0 8.3795,-0.38788 12.5322,-1.1605 4.2011,-0.72432 8.3291,-1.8337 12.3854,-3.33065 l 0,-16.60097 c -2.3684,1.49681 -4.8899,2.68957 -7.5664,3.56999 -3.6216,1.20722 -7.4603,1.81014 -11.5166,1.81014 -7.2432,0 -12.8926,-2.1002 -16.9489,-6.30129 -0.5455,-0.57835 -1.0513,-1.19021 -1.5225,-1.83025 -0.3606,-0.3213 -0.7134,-0.65107 -1.0519,-1.00161 -4.0079,-4.2494 -6.0116,-10.16409 -6.0116,-17.74538 0,-7.58129 2.0037,-13.4739 6.0116,-17.675 4.0562,-4.24938 9.7057,-6.37369 16.9489,-6.37369 3.8148,0 7.4846,0.57881 11.0097,1.73773 3.5734,1.15892 7.1226,2.9456 10.6477,5.36002 l 0,-19.19551 c -3.2556,-1.05651 -6.525,-1.8806 -9.811,-2.45374 -4.1045,-0.77261 -8.2829,-1.15848 -12.5322,-1.15848 z m 100.3922,0 c -6.0361,0 -11.2272,1.22996 -15.5732,3.69268 -4.2977,2.41442 -8.1123,6.27918 -11.4441,11.59091 l 0,-6.52454 c -0.888,1.14167 -1.746,2.37209 -2.5744,3.69268 l 0,-10.49678 -23.3568,0 0,78.29248 23.3568,0 0,-37.37533 c 0,-7.9676 1.7867,-14.07524 5.3601,-18.32463 3.6215,-4.29767 8.7646,-6.44609 15.4283,-6.44609 2.2695,0 4.5145,0.26528 6.7357,0.79646 2.2691,0.48275 4.5392,1.25502 6.8083,2.31698 l -0.063,-20.92721 c -0.7291,-0.0715 -1.3492,-0.11883 -1.8523,-0.1428 -1.014,-0.0966 -1.9567,-0.14481 -2.8259,-0.14481 z m 212.2287,0 c -5.6016,0 -11.2027,0.36175 -16.8042,1.08608 -5.6013,0.67603 -11.1784,1.68896 -16.7317,3.04103 l 0,15.64965 c 3.3717,-1.58395 6.9533,-2.82218 10.7523,-3.70476 4.7805,-1.11063 9.9476,-1.66531 15.5007,-1.66531 6.857,0 11.9034,0.96467 15.1388,2.89622 1.5412,0.89709 2.7046,2.05404 3.5118,3.45535 2.6038,1.89461 3.9158,4.67654 3.9158,8.3588 l 0,2.02736 -15.2835,0 c -14.0038,0 -24.2896,2.22278 -30.8568,6.66533 -6.5192,4.44254 -9.7788,11.42041 -9.7788,20.93323 0,6.3726 1.732,11.7833 5.193,16.23292 0.02,0.0184 0.037,0.038 0.057,0.0563 5.2634,4.87713 12.0965,7.31698 20.4988,7.31698 6.2291,0 11.5168,-1.1114 15.8629,-3.33266 4.3458,-2.26955 8.2568,-5.86701 11.7336,-10.79244 l 0,6.13837 c 0.8827,-1.02743 1.7416,-2.12669 2.5745,-3.30651 l 0,9.19148 23.574,0 0,-46.28322 c 0,-10.74755 -2.2387,-19.00962 -6.7015,-24.79888 -0.1683,-0.1574 -0.3301,-0.32235 -0.5028,-0.47466 -6.4707,-5.79462 -17.0219,-8.69067 -31.6533,-8.69067 z m -191.8746,1.95495 0,78.29248 23.3568,0 0,-78.29248 -23.3568,0 z m -332.6511,12.45174 c 4.6357,0 8.3779,1.52137 11.227,4.56355 0.5184,0.53572 0.9721,1.11405 1.3978,1.71159 0.4067,0.3483 0.8008,0.71907 1.1766,1.12027 2.8972,2.99388 4.3463,6.95309 4.3463,11.87852 l -33.6807,0 c 0.1444,-0.99265 0.3443,-1.92692 0.5712,-2.83186 l -3.1456,0 c 0.7726,-5.31173 2.7282,-9.36742 5.8669,-12.16814 3.1388,-2.84903 7.2185,-4.27393 12.2405,-4.27393 z m 424.24,1.59291 c 5.5531,0 9.7777,2.02785 12.675,6.08407 0.026,0.0348 0.049,0.0716 0.074,0.1066 0.921,0.775 1.7547,1.68184 2.5,2.72526 2.9456,4.05624 4.4188,9.94884 4.4188,17.675 0,7.72616 -1.4732,13.61674 -4.4188,17.67298 -2.8973,4.05623 -7.1218,6.08407 -12.675,6.08407 -5.5531,0 -9.828,-2.02784 -12.8218,-6.08407 -0.054,-0.0751 -0.1039,-0.15499 -0.1568,-0.2313 -0.8814,-0.74742 -1.6882,-1.61239 -2.4176,-2.60056 -2.9457,-4.10452 -4.4188,-9.99511 -4.4188,-17.67298 0,-7.67786 1.4731,-13.54635 4.4188,-17.60258 2.9938,-4.10453 7.2687,-6.15649 12.8218,-6.15649 z m 99.5214,27.74137 13.4734,0 0,2.83186 2.5744,0 0,2.97063 c 0,5.26345 -1.6661,9.65678 -4.9979,13.18183 -3.3319,3.47678 -7.4379,5.21521 -12.315,5.21521 -3.9114,-1e-5 -6.9762,-0.91645 -9.1976,-2.75141 -0.8053,-0.69797 -1.46,-1.49283 -1.9669,-2.38335 -0.2059,-0.14564 -0.4143,-0.289 -0.6075,-0.44851 -2.1729,-1.88325 -3.2602,-4.46779 -3.2602,-7.75141 0,-3.57335 1.3525,-6.27647 4.0567,-8.11143 2.7525,-1.83496 6.8322,-2.75342 12.2406,-2.75342 z"
           id="path4452" />
      </g>
    </g>
  </g>
</svg>
