<?xml version="1.0" encoding="UTF-8" standalone="no"?>
<!-- Created with Inkscape (http://www.inkscape.org/) -->

<svg
   xmlns:dc="http://purl.org/dc/elements/1.1/"
   xmlns:cc="http://creativecommons.org/ns#"
   xmlns:rdf="http://www.w3.org/1999/02/22-rdf-syntax-ns#"
   xmlns:svg="http://www.w3.org/2000/svg"
   xmlns="http://www.w3.org/2000/svg"
   xmlns:sodipodi="http://sodipodi.sourceforge.net/DTD/sodipodi-0.dtd"
   xmlns:inkscape="http://www.inkscape.org/namespaces/inkscape"
   sodipodi:docname="logo.svg"
   inkscape:version="0.91 r13725"
   version="1.1"
   id="svg2"
   viewBox="0 0 744.09448819 1052.3622047"
   height="297mm"
   width="210mm">
  <sodipodi:namedview
     inkscape:object-paths="true"
     inkscape:snap-midpoints="false"
     inkscape:snap-nodes="true"
     inkscape:object-nodes="true"
     inkscape:snap-smooth-nodes="false"
     inkscape:window-maximized="1"
     inkscape:window-y="27"
     inkscape:window-x="0"
     inkscape:window-height="704"
     inkscape:window-width="1366"
     inkscape:snap-global="false"
     inkscape:snap-center="true"
     inkscape:bbox-nodes="true"
     inkscape:snap-bbox="true"
     inkscape:guide-bbox="true"
     showguides="true"
     showgrid="false"
     inkscape:current-layer="g4939"
     inkscape:document-units="px"
     inkscape:cy="121.92287"
     inkscape:cx="-391.51972"
     inkscape:zoom="0.25"
     inkscape:pageshadow="2"
     inkscape:pageopacity="0.0"
     borderopacity="1.0"
     bordercolor="#666666"
     pagecolor="#ffffff"
     id="base">
    <sodipodi:guide
       position="277.96694,-141.56599"
       orientation="0,1"
       id="guide10508" />
  </sodipodi:namedview>
  <defs
     id="defs4">
    <inkscape:path-effect
       effect="skeletal"
       id="path-effect4901"
       is_visible="true"
       pattern="M 0,5 C 0,2.24 2.24,0 5,0 7.76,0 10,2.24 10,5 10,7.76 7.76,10 5,10 2.24,10 0,7.76 0,5 Z"
       copytype="single_stretched"
       prop_scale="1"
       scale_y_rel="false"
       spacing="0"
       normal_offset="0"
       tang_offset="0"
       prop_units="false"
       vertical_pattern="false"
       fuse_tolerance="0" />
    <inkscape:path-effect
       effect="skeletal"
       id="path-effect4885"
       is_visible="true"
       pattern="M 0,5 C 0,2.24 2.24,0 5,0 7.76,0 10,2.24 10,5 10,7.76 7.76,10 5,10 2.24,10 0,7.76 0,5 Z"
       copytype="single_stretched"
       prop_scale="1"
       scale_y_rel="false"
       spacing="0"
       normal_offset="0"
       tang_offset="0"
       prop_units="false"
       vertical_pattern="false"
       fuse_tolerance="0" />
    <inkscape:path-effect
       effect="skeletal"
       id="path-effect4881"
       is_visible="true"
       pattern="M 0,5 C 0,2.24 2.24,0 5,0 7.76,0 10,2.24 10,5 10,7.76 7.76,10 5,10 2.24,10 0,7.76 0,5 Z"
       copytype="single_stretched"
       prop_scale="1"
       scale_y_rel="false"
       spacing="0"
       normal_offset="0"
       tang_offset="0"
       prop_units="false"
       vertical_pattern="false"
       fuse_tolerance="0" />
    <inkscape:path-effect
       effect="skeletal"
       id="path-effect4875"
       is_visible="true"
       pattern="M 0,5 C 0,2.24 2.24,0 5,0 7.76,0 10,2.24 10,5 10,7.76 7.76,10 5,10 2.24,10 0,7.76 0,5 Z"
       copytype="single_stretched"
       prop_scale="1"
       scale_y_rel="false"
       spacing="0"
       normal_offset="0"
       tang_offset="0"
       prop_units="false"
       vertical_pattern="false"
       fuse_tolerance="0" />
    <inkscape:path-effect
       effect="skeletal"
       id="path-effect4871"
       is_visible="true"
       pattern="M 0,5 C 0,2.24 2.24,0 5,0 7.76,0 10,2.24 10,5 10,7.76 7.76,10 5,10 2.24,10 0,7.76 0,5 Z"
       copytype="single_stretched"
       prop_scale="1"
       scale_y_rel="false"
       spacing="0"
       normal_offset="0"
       tang_offset="0"
       prop_units="false"
       vertical_pattern="false"
       fuse_tolerance="0" />
    <inkscape:path-effect
       effect="skeletal"
       id="path-effect4867"
       is_visible="true"
       pattern="M 0,5 C 0,2.24 2.24,0 5,0 7.76,0 10,2.24 10,5 10,7.76 7.76,10 5,10 2.24,10 0,7.76 0,5 Z"
       copytype="single_stretched"
       prop_scale="1"
       scale_y_rel="false"
       spacing="0"
       normal_offset="0"
       tang_offset="0"
       prop_units="false"
       vertical_pattern="false"
       fuse_tolerance="0" />
    <inkscape:path-effect
       effect="skeletal"
       id="path-effect4863"
       is_visible="true"
       pattern="M 0,5 C 0,2.24 2.24,0 5,0 7.76,0 10,2.24 10,5 10,7.76 7.76,10 5,10 2.24,10 0,7.76 0,5 Z"
       copytype="single_stretched"
       prop_scale="2"
       scale_y_rel="false"
       spacing="0"
       normal_offset="0"
       tang_offset="0"
       prop_units="false"
       vertical_pattern="false"
       fuse_tolerance="0" />
    <inkscape:path-effect
       effect="skeletal"
       id="path-effect4859"
       is_visible="true"
       pattern="M 0,5 C 0,2.24 2.24,0 5,0 7.76,0 10,2.24 10,5 10,7.76 7.76,10 5,10 2.24,10 0,7.76 0,5 Z"
       copytype="single_stretched"
       prop_scale="1"
       scale_y_rel="false"
       spacing="0"
       normal_offset="0"
       tang_offset="0"
       prop_units="false"
       vertical_pattern="false"
       fuse_tolerance="0" />
    <inkscape:path-effect
       pattern-nodetypes="cscc"
       fuse_tolerance="0"
       vertical_pattern="false"
       prop_units="false"
       tang_offset="0"
       normal_offset="0"
       spacing="0"
       scale_y_rel="false"
       prop_scale="1"
       copytype="single_stretched"
       pattern="m -958.72588,758.45781 c 8.26,0.5 7.37868,6.62909 7.37868,9.38909 0,2.76 -3.24,5 -6,5 -16.49452,-1.5747 -12.30619,-14.57668 -1.37868,-14.38909 z"
       is_visible="true"
       id="path-effect12444"
       effect="skeletal" />
    <inkscape:path-effect
       pattern-nodetypes="sccs"
       effect="skeletal"
       id="path-effect12440"
       is_visible="true"
       pattern="m -908.99565,951.08958 c 0,-2.76 14.96792,-5.00001 17.72792,-5.00001 15.47371,-6.39141 16.40102,18.97212 10.60661,20.25305 -2.76,0 -28.33453,-12.49304 -28.33453,-15.25304 z"
       copytype="single_stretched"
       prop_scale="1"
       scale_y_rel="false"
       spacing="0"
       normal_offset="0"
       tang_offset="0"
       prop_units="false"
       vertical_pattern="false"
       fuse_tolerance="0" />
    <inkscape:path-effect
       fuse_tolerance="0"
       vertical_pattern="false"
       prop_units="false"
       tang_offset="0"
       normal_offset="0"
       spacing="0"
       scale_y_rel="false"
       prop_scale="1"
       copytype="single_stretched"
       pattern="m -1216.9516,196.30361 c 0,-2.76 2.24,-5 5,-5 2.76,0 5,2.24 5,5 0,2.76 -2.24,5 -5,5 -2.76,0 -5,-2.24 -5,-5 z"
       is_visible="true"
       id="path-effect12436"
       effect="skeletal" />
    <inkscape:path-effect
       effect="skeletal"
       id="path-effect12432"
       is_visible="true"
       pattern="m -1037.284,757.00271 c 0,11.59798 -55.1522,4.73655 -63,4.73655 -7.8478,0 -63,6.86143 -63,-4.73655 0,-11.59798 55.1522,-4.73654 63,-4.73654 7.8478,0 63,-6.86144 63,4.73654 z"
       copytype="single_stretched"
       prop_scale="0.91"
       scale_y_rel="false"
       spacing="0"
       normal_offset="0"
       tang_offset="0"
       prop_units="false"
       vertical_pattern="false"
       fuse_tolerance="0"
       pattern-nodetypes="sssss" />
    <inkscape:path-effect
       fuse_tolerance="0"
       vertical_pattern="false"
       prop_units="false"
       tang_offset="0"
       normal_offset="0"
       spacing="0"
       scale_y_rel="false"
       prop_scale="1"
       copytype="single_stretched"
       pattern="m -921.41325,878.34302 c 0,-5.2971 4.29909,-9.59619 9.59619,-9.59619 5.2971,0 9.59619,4.29909 9.59619,9.59619 0,5.2971 -4.29909,9.59619 -9.59619,9.59619 -5.2971,0 -9.59619,-4.29909 -9.59619,-9.59619 z"
       is_visible="true"
       id="path-effect12428"
       effect="skeletal"
       pattern-nodetypes="sssss" />
    <inkscape:path-effect
       pattern-nodetypes="sssss"
       fuse_tolerance="0"
       vertical_pattern="false"
       prop_units="false"
       tang_offset="0"
       normal_offset="0"
       spacing="0"
       scale_y_rel="false"
       prop_scale="0.91"
       copytype="single_stretched"
       pattern="m -925.48754,600.09383 c -3.58654,30.99251 -17.22895,11.85179 -25.41123,11.85179 -8.1823,0 -49.17303,2.25429 -49.17303,-9.83808 0,-12.09237 36.96331,-3.39419 45.1456,-3.39419 8.18228,0 30.82874,-10.63173 29.43866,1.38048 z"
       is_visible="true"
       id="path-effect12424"
       effect="skeletal" />
    <inkscape:path-effect
       effect="skeletal"
       id="path-effect12406"
       is_visible="true"
       pattern="m -267.17545,758.45781 c 8.26,0.5 7.37868,6.62909 7.37868,9.38909 0,2.76 -3.24,5 -6,5 -16.49452,-1.5747 -12.30619,-14.57668 -1.37868,-14.38909 z"
       copytype="single_stretched"
       prop_scale="1"
       scale_y_rel="false"
       spacing="0"
       normal_offset="0"
       tang_offset="0"
       prop_units="false"
       vertical_pattern="false"
       fuse_tolerance="0"
       pattern-nodetypes="cscc" />
    <inkscape:path-effect
       fuse_tolerance="0"
       vertical_pattern="false"
       prop_units="false"
       tang_offset="0"
       normal_offset="0"
       spacing="0"
       scale_y_rel="false"
       prop_scale="1"
       copytype="single_stretched"
       pattern="m -225.44522,956.08958 c 0,-2.76 14.96792,-5.00001 17.72792,-5.00001 15.47371,-6.39141 16.40102,18.97212 10.60661,20.25305 -2.76,0 -28.33453,-12.49304 -28.33453,-15.25304 z"
       is_visible="true"
       id="path-effect12402"
       effect="skeletal"
       pattern-nodetypes="sccs" />
    <inkscape:path-effect
       fuse_tolerance="0"
       vertical_pattern="false"
       prop_units="false"
       tang_offset="0"
       normal_offset="0"
       spacing="0"
       scale_y_rel="false"
       prop_scale="1"
       copytype="single_stretched"
       pattern="m -8,25 c 0,-2.76 2.24,-5 5,-5 2.76,0 5,2.24 5,5 0,2.76 -2.24,5 -5,5 -2.76,0 -5,-2.24 -5,-5 z"
       is_visible="true"
       id="path-effect12398"
       effect="skeletal" />
    <inkscape:path-effect
       effect="skeletal"
       id="path-effect12394"
       is_visible="true"
       pattern="M 0,5 C 0,2.24 2.24,0 5,0 7.76,0 10,2.24 10,5 10,7.76 7.76,10 5,10 2.24,10 0,7.76 0,5 Z"
       copytype="single_stretched"
       prop_scale="1"
       scale_y_rel="false"
       spacing="0"
       normal_offset="0"
       tang_offset="0"
       prop_units="false"
       vertical_pattern="false"
       fuse_tolerance="0" />
    <inkscape:path-effect
       effect="skeletal"
       id="path-effect12390"
       is_visible="true"
       pattern="m -533.40115,200.30361 c 0,-2.76 2.24,-5 5,-5 2.76,0 5,2.24 5,5 0,2.76 -2.24,5 -5,5 -2.76,0 -5,-2.24 -5,-5 z"
       copytype="single_stretched"
       prop_scale="1"
       scale_y_rel="false"
       spacing="0"
       normal_offset="0"
       tang_offset="0"
       prop_units="false"
       vertical_pattern="false"
       fuse_tolerance="0" />
    <inkscape:path-effect
       pattern-nodetypes="sssss"
       fuse_tolerance="0"
       vertical_pattern="false"
       prop_units="false"
       tang_offset="0"
       normal_offset="0"
       spacing="0"
       scale_y_rel="false"
       prop_scale="0.91"
       copytype="single_stretched"
       pattern="m -345.73357,757.00271 c 0,11.59798 -55.15224,4.73655 -63,4.73655 -7.84776,0 -63,6.86143 -63,-4.73655 0,-11.59798 55.15224,-4.73654 63,-4.73654 7.84776,0 63,-6.86144 63,4.73654 z"
       is_visible="true"
       id="path-effect12382"
       effect="skeletal" />
    <inkscape:path-effect
       effect="skeletal"
       id="path-effect12378"
       is_visible="true"
       pattern="m -555.78593,157.73506 c 0,-2.76 2.24,-5 5,-5 2.76,0 5,2.24 5,5 0,2.76 -2.24,5 -5,5 -2.76,0 -5,-2.24 -5,-5 z"
       copytype="single_stretched"
       prop_scale="1"
       scale_y_rel="false"
       spacing="0"
       normal_offset="0"
       tang_offset="0"
       prop_units="false"
       vertical_pattern="false"
       fuse_tolerance="0" />
    <inkscape:path-effect
       effect="skeletal"
       id="path-effect12374"
       is_visible="true"
       pattern="m 395.75,592.75 c 0,-2.76 2.24,-5 5,-5 2.76,0 5,2.24 5,5 0,2.76 -2.24,5 -5,5 -2.76,0 -5,-2.24 -5,-5 z"
       copytype="single_stretched"
       prop_scale="1"
       scale_y_rel="false"
       spacing="0"
       normal_offset="0"
       tang_offset="0"
       prop_units="false"
       vertical_pattern="false"
       fuse_tolerance="0"
       pattern-nodetypes="sssss" />
    <inkscape:path-effect
       effect="skeletal"
       id="path-effect12349"
       is_visible="true"
       pattern="m -196.562,612.99052 c 0,11.59798 -55.15224,4.73655 -63,4.73655 -7.84776,0 -63,6.86143 -63,-4.73655 0,-11.59798 55.15224,-4.73654 63,-4.73654 7.84776,0 63,-6.86144 63,4.73654 z"
       copytype="single_stretched"
       prop_scale="0.91"
       scale_y_rel="false"
       spacing="0"
       normal_offset="0"
       tang_offset="0"
       prop_units="false"
       vertical_pattern="false"
       fuse_tolerance="0"
       pattern-nodetypes="sssss" />
    <inkscape:perspective
       sodipodi:type="inkscape:persp3d"
       inkscape:vp_x="-102.65959 : -1.2572174e-14 : 0"
       inkscape:vp_y="6.123234e-14 : 1000 : 0"
       inkscape:vp_z="-346.76816 : -181.28601 : 0"
       inkscape:persp3d-origin="160.94616 : 573.7519 : 1"
       id="perspective4327" />
    <clipPath
       clipPathUnits="userSpaceOnUse"
       id="clipPath4917">
      <g
         id="g4919"
         transform="translate(9.9960538,1.1960863)"
         style="fill:#212800;fill-opacity:1">
        <path
           d="m 68.333982,736.38045 c -31.95597,0 -48.939562,25.25192 -48.939562,57.8783 0,35.08452 19.218275,54.74974 54.302802,54.74974 11.620353,0 23.240706,-2.01122 34.861058,-6.03365 l -3.35202,-13.4081 c -8.268332,2.90509 -17.207065,4.2459 -26.369267,4.2459 -24.804983,0 -40.894703,-13.63157 -40.894703,-35.75493 l 73.96802,0 1.11734,-2.45815 0,-9.83261 c 0,-30.16822 -14.972381,-49.3865 -44.693668,-49.3865 z m 26.145794,46.92835 -56.090549,0 c 2.234683,-18.3244 11.843821,-32.40291 31.95597,-32.40291 16.983593,0 24.134579,14.97238 24.134579,32.40291 z"
           style="font-style:normal;font-variant:normal;font-weight:normal;font-stretch:normal;font-size:medium;line-height:125%;font-family:Cantarell;-inkscape-font-specification:Cantarell;letter-spacing:0px;word-spacing:0px;fill:#212800;fill-opacity:1;stroke:none;stroke-width:1px;stroke-linecap:butt;stroke-linejoin:miter;stroke-opacity:1"
           id="path4921"
           inkscape:connector-curvature="0" />
        <path
           d="m 198.55316,714.25709 c 15.86625,0 26.36926,3.57549 39.10696,8.49179 l 9.1622,-24.35804 -3.12856,-1.11734 c -14.0785,-5.13978 -26.36926,-8.26833 -46.03447,-8.26833 -31.0621,0 -58.32523,14.0785 -58.32523,44.02326 0,31.06209 24.80498,39.55389 49.16303,46.92835 12.73769,3.79896 35.9784,10.72647 35.9784,23.2407 0,15.19585 -18.77134,20.55909 -35.308,20.55909 -11.17341,0 -25.25192,-3.12856 -42.45898,-9.60914 l -4.2459,-1.78775 -9.38567,23.91111 3.5755,1.78775 c 17.43053,6.70405 28.82741,10.94995 50.28037,10.94995 35.08453,0 65.02928,-13.18463 65.02928,-45.81101 0,-30.83863 -25.25192,-39.33042 -49.60997,-46.92835 -11.84382,-3.57549 -35.53146,-11.17341 -35.53146,-22.12336 0,-14.74891 15.64278,-19.88868 31.7325,-19.88868 z"
           style="font-style:normal;font-variant:normal;font-weight:bold;font-stretch:normal;font-size:medium;line-height:125%;font-family:Cantarell;-inkscape-font-specification:'Cantarell Bold';letter-spacing:0px;word-spacing:0px;fill:#212800;fill-opacity:1;stroke:none;stroke-width:1px;stroke-linecap:butt;stroke-linejoin:miter;stroke-opacity:1"
           id="path4923"
           inkscape:connector-curvature="0" />
        <path
           d="m 325.28065,849.00849 c 9.83261,0 20.33562,-2.01122 31.28556,-6.25712 l -4.24589,-12.73769 c -6.70405,2.45815 -13.63157,3.79896 -20.78256,3.79896 -26.59273,0 -40.44776,-14.0785 -40.44776,-43.12939 0,-25.25192 12.96116,-38.88348 38.88348,-38.88348 8.26833,0 15.64279,1.34081 22.34684,4.24589 l 4.46936,-13.63156 c -9.1622,-4.02243 -18.54787,-6.03365 -27.71007,-6.03365 -36.42534,0 -56.53749,23.46418 -56.53749,57.65483 0,34.19065 18.77134,54.97321 52.73853,54.97321 z"
           style="font-style:normal;font-variant:normal;font-weight:normal;font-stretch:normal;font-size:medium;line-height:125%;font-family:Cantarell;-inkscape-font-specification:Cantarell;letter-spacing:0px;word-spacing:0px;fill:#212800;fill-opacity:1;stroke:none;stroke-width:1px;stroke-linecap:butt;stroke-linejoin:miter;stroke-opacity:1"
           id="path4925"
           inkscape:connector-curvature="0" />
        <path
           d="m 426.52927,736.38045 c -10.50301,0 -20.33562,3.5755 -29.72129,10.72648 l -4.02243,-8.26833 -13.4081,0 0,107.9352 18.54787,0 0,-86.25877 c 7.82139,-5.36324 15.41932,-8.04486 23.46418,-8.04486 5.81017,0 11.17341,1.34081 16.08972,3.57549 l 6.70405,-16.53665 c -5.36324,-2.45815 -9.60914,-3.12856 -17.654,-3.12856 z"
           style="font-style:normal;font-variant:normal;font-weight:normal;font-stretch:normal;font-size:medium;line-height:125%;font-family:Cantarell;-inkscape-font-specification:Cantarell;letter-spacing:0px;word-spacing:0px;fill:#212800;fill-opacity:1;stroke:none;stroke-width:1px;stroke-linecap:butt;stroke-linejoin:miter;stroke-opacity:1"
           id="path4927"
           inkscape:connector-curvature="0" />
        <path
           d="m 470.58396,721.63154 c 6.70405,0 12.06729,-5.36324 12.06729,-12.06729 0,-6.70405 -5.36324,-12.06729 -12.06729,-12.06729 -6.70405,0 -12.06729,5.36324 -12.06729,12.06729 0,6.70405 5.36324,12.06729 12.06729,12.06729 z m -8.93873,17.43053 0,107.71173 17.87746,0 0,-107.71173 -17.87746,0 z"
           style="font-style:normal;font-variant:normal;font-weight:normal;font-stretch:normal;font-size:medium;line-height:125%;font-family:Cantarell;-inkscape-font-specification:Cantarell;letter-spacing:0px;word-spacing:0px;fill:#212800;fill-opacity:1;stroke:none;stroke-width:1px;stroke-linecap:butt;stroke-linejoin:miter;stroke-opacity:1"
           id="path4929"
           inkscape:connector-curvature="0" />
        <path
           d="m 609.06798,793.36487 c 0,-35.08452 -18.10093,-56.98442 -52.51506,-56.98442 -10.27954,0 -18.9948,1.78775 -26.36926,5.13977 l 0,-55.19667 -18.3244,0 0,160.45025 12.96116,0 3.35203,-7.59792 c 10.05607,6.70405 20.55908,9.83261 31.06209,9.83261 32.62638,0 49.83344,-22.79377 49.83344,-55.64362 z m -54.52627,40.00083 c -11.17342,0 -16.31319,-2.23468 -24.35805,-6.48058 l 0,-71.06292 c 7.15099,-2.90509 15.19585,-4.46937 24.13458,-4.46937 24.13458,0 35.53146,16.98359 35.53146,40.8947 0,26.8162 -9.60913,41.11817 -35.30799,41.11817 z"
           style="font-style:normal;font-variant:normal;font-weight:normal;font-stretch:normal;font-size:medium;line-height:125%;font-family:Cantarell;-inkscape-font-specification:Cantarell;letter-spacing:0px;word-spacing:0px;fill:#212800;fill-opacity:1;stroke:none;stroke-width:1px;stroke-linecap:butt;stroke-linejoin:miter;stroke-opacity:1"
           id="path4931"
           inkscape:connector-curvature="0" />
        <path
           d="m 670.02594,752.02323 c 21.89989,0 27.26313,9.38567 27.26313,31.28557 -34.86105,0.67041 -67.7109,3.79896 -67.7109,35.53146 0,18.10094 16.31319,30.16823 34.86106,30.16823 11.39689,0 22.5703,-4.2459 33.29678,-12.51423 l 4.02243,10.27954 13.85504,0 0,-70.61599 c 0,-28.60394 -13.4081,-39.77736 -43.12939,-39.77736 -10.94995,0 -22.79377,2.23469 -35.53146,6.48058 l 3.79896,13.63157 c 7.15099,-2.23468 20.33562,-4.46937 29.27435,-4.46937 z m -2.90509,82.23635 c -10.72648,0 -19.66521,-6.70405 -19.66521,-17.43053 0,-18.3244 25.92232,-18.77134 49.83343,-18.77134 l 0,24.35805 c -7.82139,6.70405 -16.31318,11.84382 -30.16822,11.84382 z"
           style="font-style:normal;font-variant:normal;font-weight:normal;font-stretch:normal;font-size:medium;line-height:125%;font-family:Cantarell;-inkscape-font-specification:Cantarell;letter-spacing:0px;word-spacing:0px;fill:#212800;fill-opacity:1;stroke:none;stroke-width:1px;stroke-linecap:butt;stroke-linejoin:miter;stroke-opacity:1"
           id="path4933"
           inkscape:connector-curvature="0" />
      </g>
    </clipPath>
  </defs>
  <metadata
     id="metadata7">
    <rdf:RDF>
      <cc:Work
         rdf:about="">
        <dc:format>image/svg+xml</dc:format>
        <dc:type
           rdf:resource="http://purl.org/dc/dcmitype/StillImage" />
        <dc:title />
      </cc:Work>
    </rdf:RDF>
  </metadata>
  <g
     inkscape:label="Layer 1"
     inkscape:groupmode="layer"
     id="layer1">
    <g
       id="g3494"
       transform="matrix(0.88437648,0,0,0.88437648,-76.215786,-30.880313)">
      <g
         transform="matrix(0.19277272,0,0,0.19277272,218.50109,147.30618)"
         id="g4292">
        <circle
           style="fill:#ccb900;fill-opacity:1;fill-rule:evenodd;stroke:none;stroke-width:1;stroke-miterlimit:4;stroke-dasharray:none;stroke-opacity:1"
           id="path3340"
           cx="255.44542"
           cy="49.305973"
           r="87.028221" />
        <circle
           r="64.569321"
           cy="49.305973"
           cx="438.21085"
           id="circle4144"
           style="fill:#920900;fill-opacity:1;fill-rule:evenodd;stroke:none;stroke-width:1;stroke-miterlimit:4;stroke-dasharray:none;stroke-opacity:1" />
        <circle
           r="72.055618"
           cy="-102.29156"
           cx="348.81323"
           id="circle4148"
           style="fill:#000000;fill-opacity:1;fill-rule:evenodd;stroke:none;stroke-width:1;stroke-miterlimit:4;stroke-dasharray:none;stroke-opacity:1" />
        <circle
           r="75.798775"
           cy="-252.56569"
           cx="255.44542"
           id="circle4156"
           style="fill:#be7b00;fill-opacity:1;fill-rule:evenodd;stroke:none;stroke-width:1;stroke-miterlimit:4;stroke-dasharray:none;stroke-opacity:1" />
        <circle
           style="fill:#2c0000;fill-opacity:1;fill-rule:evenodd;stroke:none;stroke-width:1;stroke-miterlimit:4;stroke-dasharray:none;stroke-opacity:1"
           id="circle4158"
           cx="438.21085"
           cy="-252.5657"
           r="75.798775" />
        <path
           inkscape:connector-curvature="0"
           style="fill:#ffa500;fill-opacity:1;fill-rule:evenodd;stroke:none;stroke-width:1;stroke-miterlimit:4;stroke-dasharray:none;stroke-opacity:1"
           d="m 261.94531,-320.36523 a 75.798775,75.798775 0 0 0 -75.79883,75.79882 75.798775,75.798775 0 0 0 14.11524,43.88868 75.798775,75.798775 0 0 0 55.18359,23.91015 75.798775,75.798775 0 0 0 75.79883,-75.79883 75.798775,75.798775 0 0 0 -14.11133,-43.88476 75.798775,75.798775 0 0 0 -55.1875,-23.91406 z"
           id="circle4262" />
        <g
           id="g4243"
           transform="translate(-29,-126)">
          <g
             id="g4286"
             transform="translate(7.7781746,-30.405591)">
            <path
               style="fill:#b65900;fill-opacity:1;fill-rule:evenodd;stroke:none;stroke-width:1px;stroke-linecap:butt;stroke-linejoin:miter;stroke-opacity:1"
               d="M 304.64651,-86.508997 -7.2814184,453.76602 c 0.4035714,26.24727 12.2539991,32.99813 35.9483164,20.75477 L 360.29279,-99.872111 c 0,0 60.78483,-124.222759 50.57922,-130.114969 -8.90247,-5.13985 -106.2255,143.478083 -106.2255,143.478083 z"
               id="path4221"
               inkscape:connector-curvature="0"
               sodipodi:nodetypes="ccccsc" />
            <path
               sodipodi:nodetypes="ccccsc"
               inkscape:connector-curvature="0"
               id="path4223"
               d="M 312.94275,-59.449934 C 197.06422,148.41081 102.87895,284.66798 9.2658501,463.31959 0.5317842,479.85801 8.1588783,484.99532 28.666898,474.52079 L 360.29279,-99.872111 c 0,0 53.47232,-129.602179 50.57922,-130.114969 -14.02457,-2.48578 -97.92926,170.537146 -97.92926,170.537146 z"
               style="fill:#944800;fill-opacity:1;fill-rule:evenodd;stroke:none;stroke-width:1px;stroke-linecap:butt;stroke-linejoin:miter;stroke-opacity:1" />
            <path
               style="fill:#040b00;fill-opacity:1;fill-rule:evenodd;stroke:none;stroke-width:1px;stroke-linecap:butt;stroke-linejoin:miter;stroke-opacity:1"
               d="m 304.64651,-86.508997 -19.78507,34.268743 c 24.44669,-26.628636 57.02433,-58.259156 75.43135,-47.631857 0,0 60.78483,-124.222759 50.57922,-130.114969 -8.90247,-5.13985 -106.2255,143.478083 -106.2255,143.478083 z"
               id="path4225"
               inkscape:connector-curvature="0"
               sodipodi:nodetypes="cccsc" />
            <path
               sodipodi:nodetypes="cccc"
               inkscape:connector-curvature="0"
               id="path4230"
               d="m 318.87793,-85.674788 c 15.76259,-12.651102 32.71047,-20.070472 41.41486,-14.197323 0,0 60.04306,-127.149819 50.57922,-130.114969 -9.19302,21.32815 -53.25895,93.90331 -91.99408,144.312292 z"
               style="fill:#000000;fill-opacity:1;fill-rule:evenodd;stroke:none;stroke-width:1px;stroke-linecap:butt;stroke-linejoin:miter;stroke-opacity:1" />
          </g>
        </g>
        <path
           inkscape:connector-curvature="0"
           style="fill:#6e0000;fill-opacity:1;fill-rule:evenodd;stroke:none;stroke-width:1;stroke-miterlimit:4;stroke-dasharray:none;stroke-opacity:1"
           d="m 444.57422,-322 a 75.798775,75.798775 0 0 0 -75.79883,75.79883 75.798775,75.798775 0 0 0 19.3125,50.40429 75.798775,75.798775 0 0 0 50.12305,19.0293 75.798775,75.798775 0 0 0 75.79883,-75.79883 75.798775,75.798775 0 0 0 -19.31836,-50.41211 A 75.798775,75.798775 0 0 0 444.57422,-322 Z"
           id="circle4266" />
        <path
           inkscape:connector-curvature="0"
           style="fill:#040b00;fill-opacity:1;fill-rule:evenodd;stroke:none;stroke-width:1;stroke-miterlimit:4;stroke-dasharray:none;stroke-opacity:1"
           d="m 355.17773,-167.27539 a 72.055618,72.055618 0 0 0 -72.05664,72.054687 72.055618,72.055618 0 0 0 15.27149,44.314453 72.055618,72.055618 0 0 0 50.41992,20.669922 72.055618,72.055618 0 0 0 72.05664,-72.054692 72.055618,72.055618 0 0 0 -15.27344,-44.3164 72.055618,72.055618 0 0 0 -50.41797,-20.66797 z"
           id="circle4271" />
        <path
           inkscape:connector-curvature="0"
           style="fill:#ffe701;fill-opacity:1;fill-rule:evenodd;stroke:none;stroke-width:1;stroke-miterlimit:4;stroke-dasharray:none;stroke-opacity:1"
           d="m 263.22266,-29.943359 a 87.028221,87.028221 0 0 0 -87.02735,87.027343 87.028221,87.028221 0 0 0 22.02539,57.705076 87.028221,87.028221 0 0 0 57.22461,21.54492 87.028221,87.028221 0 0 0 87.0293,-87.027339 87.028221,87.028221 0 0 0 -22.02539,-57.7050785 87.028221,87.028221 0 0 0 -57.22656,-21.5449215 z"
           id="circle4276" />
        <path
           inkscape:connector-curvature="0"
           style="fill:#ea0f00;fill-opacity:1;fill-rule:evenodd;stroke:none;stroke-width:1;stroke-miterlimit:4;stroke-dasharray:none;stroke-opacity:1"
           d="M 444.57422,-9.6074219 A 64.569321,64.569321 0 0 0 380.00586,54.962891 64.569321,64.569321 0 0 0 398.23242,99.921875 64.569321,64.569321 0 0 0 438.21094,113.875 64.569321,64.569321 0 0 0 502.7793,49.306641 64.569321,64.569321 0 0 0 484.55273,4.3476562 64.569321,64.569321 0 0 0 444.57422,-9.6074219 Z"
           id="circle4281" />
        <g
           id="g4203"
           transform="matrix(0.8660254,0.5,-0.5,0.8660254,36.640127,-326.95218)">
          <path
             style="fill:#b65900;fill-opacity:1;fill-rule:evenodd;stroke:none;stroke-width:1px;stroke-linecap:butt;stroke-linejoin:miter;stroke-opacity:1"
             d="m 419.91904,-80.610531 0,623.855851 c 13.47314,22.52902 27.11134,22.45022 41.50954,0 l 0,-663.25179 c 0,0 -9.47018,-137.97248 -21.2546,-137.97248 -10.27969,0 -20.25494,177.368419 -20.25494,177.368419 z"
             id="path4201"
             inkscape:connector-curvature="0"
             sodipodi:nodetypes="ccccsc" />
          <path
             sodipodi:nodetypes="ccccsc"
             inkscape:connector-curvature="0"
             id="path4185"
             d="m 440.63333,-61.324817 c 3.57662,237.951947 -9.86163,403.046757 -1.60715,604.570137 0.70529,18.68973 9.8792,19.32522 22.4024,0 l 0,-663.25179 c 0,0 -17.76355,-138.72195 -21.2546,-137.97248 -13.92586,2.98966 0.45935,196.654133 0.45935,196.654133 z"
             style="fill:#944800;fill-opacity:1;fill-rule:evenodd;stroke:none;stroke-width:1px;stroke-linecap:butt;stroke-linejoin:miter;stroke-opacity:1" />
          <path
             style="fill:#ea0f00;fill-opacity:1;fill-rule:evenodd;stroke:none;stroke-width:1px;stroke-linecap:butt;stroke-linejoin:miter;stroke-opacity:1"
             d="m 419.91904,-80.610531 0,39.570136 c 7.85714,-35.284422 20.25494,-78.966075 41.50954,-78.966075 0,0 -9.47018,-137.97248 -21.2546,-137.97248 -10.27969,0 -20.25494,177.368419 -20.25494,177.368419 z"
             id="path4193"
             inkscape:connector-curvature="0"
             sodipodi:nodetypes="cccsc" />
          <path
             sodipodi:nodetypes="cccc"
             inkscape:connector-curvature="0"
             id="path4232"
             d="m 431.77933,-83.607453 c 14.36639,-34.450347 20.4954,-34.696627 29.64925,-36.399017 -1.25824,-25.5916 -10.2965,-137.75605 -21.2546,-137.97248 1.49613,-0.0444 -5.03074,39.90766 -8.39465,174.371497 z"
             style="fill:#950900;fill-opacity:1;fill-rule:evenodd;stroke:none;stroke-width:1px;stroke-linecap:butt;stroke-linejoin:miter;stroke-opacity:1" />
        </g>
        <g
           id="g4249"
           transform="translate(25.781746,-50.514718)">
          <path
             sodipodi:nodetypes="ccccsc"
             inkscape:connector-curvature="0"
             id="path4210"
             d="M 480.41305,-70.346557 168.48512,469.92846 c 0.40358,26.24727 12.254,32.99813 35.94832,20.75477 L 536.05933,-83.709671 c 0,0 60.78483,-124.222759 50.57922,-130.114969 -8.90247,-5.13985 -106.2255,143.478083 -106.2255,143.478083 z"
             style="fill:#b65900;fill-opacity:1;fill-rule:evenodd;stroke:none;stroke-width:1px;stroke-linecap:butt;stroke-linejoin:miter;stroke-opacity:1" />
          <path
             style="fill:#944800;fill-opacity:1;fill-rule:evenodd;stroke:none;stroke-width:1px;stroke-linecap:butt;stroke-linejoin:miter;stroke-opacity:1"
             d="M 488.70929,-43.287494 C 372.83076,164.57325 278.64549,300.83042 185.03239,479.48203 c -8.73406,16.53842 -1.10697,21.67573 19.40105,11.2012 L 536.05933,-83.709671 c 0,0 53.31211,-129.553299 50.57922,-130.114969 -13.95156,-2.86733 -97.92926,170.537146 -97.92926,170.537146 z"
             id="path4212"
             inkscape:connector-curvature="0"
             sodipodi:nodetypes="ccccsc" />
          <path
             sodipodi:nodetypes="cccsc"
             inkscape:connector-curvature="0"
             id="path4214"
             d="m 480.41305,-70.346557 -19.78507,34.268743 c 24.44669,-26.628636 57.02433,-58.259157 75.43135,-47.631857 0,0 60.78483,-124.222759 50.57922,-130.114969 -8.90247,-5.13985 -106.2255,143.478083 -106.2255,143.478083 z"
             style="fill:#ffa500;fill-opacity:1;fill-rule:evenodd;stroke:none;stroke-width:1px;stroke-linecap:butt;stroke-linejoin:miter;stroke-opacity:1" />
          <path
             style="fill:#c98200;fill-opacity:1;fill-rule:evenodd;stroke:none;stroke-width:1px;stroke-linecap:butt;stroke-linejoin:miter;stroke-opacity:1"
             d="m 495.13274,-69.590377 c 21.91219,-14.362996 36.48701,-15.74802 40.92659,-14.119294 0,0 60.78483,-124.222759 50.57922,-130.114969 -12.67479,18.48942 -46.7876,65.40077 -91.50581,144.234263 z"
             id="path4234"
             inkscape:connector-curvature="0"
             sodipodi:nodetypes="cccc" />
        </g>
      </g>
      <text
         sodipodi:linespacing="125%"
         id="text4320"
         y="291.38626"
         x="113.53222"
         style="font-style:italic;font-variant:normal;font-weight:normal;font-stretch:normal;font-size:87.44823456px;line-height:125%;font-family:'Bookman URW';-inkscape-font-specification:'Bookman URW Italic';letter-spacing:0px;word-spacing:0px;fill:#743900;fill-opacity:1;stroke:none;stroke-width:1px;stroke-linecap:butt;stroke-linejoin:miter;stroke-opacity:1"
         xml:space="preserve"><tspan
           y="291.38626"
           x="113.53222"
           id="tspan4322"
           sodipodi:role="line">eScriba</tspan></text>
    </g>
    <g
       id="g4656"
       transform="matrix(0.52000001,0,0,0.52000001,-261.30836,701.59821)">
      <g
         transform="matrix(0.9637426,0,0,1,54.584809,0)"
         id="g4639">
        <rect
           style="fill:#ffc600;fill-opacity:1;fill-rule:evenodd;stroke:none;stroke-width:1;stroke-miterlimit:4;stroke-dasharray:none;stroke-opacity:1"
           id="rect4379"
           width="830.09717"
           height="158.25243"
           x="1187.8145"
           y="-925.91046" />
        <rect
           y="-996.7843"
           x="1187.8145"
           height="70.873787"
           width="830.09717"
           id="rect4381"
           style="fill:#ffda69;fill-opacity:1;fill-rule:evenodd;stroke:none;stroke-width:1;stroke-miterlimit:4;stroke-dasharray:none;stroke-opacity:1" />
        <rect
           style="fill:#a87e00;fill-opacity:1;fill-rule:evenodd;stroke:none;stroke-width:1;stroke-miterlimit:4;stroke-dasharray:none;stroke-opacity:1"
           id="rect4385"
           width="830.09717"
           height="70.873787"
           x="1187.8145"
           y="-767.65808" />
      </g>
      <g
         transform="matrix(1.0000022,0,0,1.0000022,-0.00285803,0.00173846)"
         id="g4644">
        <path
           inkscape:connector-curvature="0"
           style="font-style:normal;font-variant:normal;font-weight:bold;font-stretch:normal;font-size:medium;line-height:125%;font-family:sans-serif;-inkscape-font-specification:'sans-serif Bold';letter-spacing:0px;word-spacing:0px;fill:#ffdf70;fill-opacity:1;stroke:none;stroke-width:1px;stroke-linecap:butt;stroke-linejoin:miter;stroke-opacity:1"
           d="m 1721.1293,-907.67227 a 3.6070423,3.6070423 0 0 0 -3.6062,3.6062 l 0,112.70521 a 3.6070423,3.6070423 0 0 0 3.6062,3.60619 l 25.9312,0 a 3.6070423,3.6070423 0 0 0 3.6062,-3.60619 l 0,-2.58448 c 2.0831,1.79973 4.2781,3.33738 6.603,4.55149 a 3.6070423,3.6070423 0 0 0 0.028,0.0141 c 4.9097,2.50941 10.5125,3.72688 16.6352,3.72688 10.9487,0 20.4289,-4.58407 27.4276,-13.21402 a 3.6070423,3.6070423 0 0 0 0.01,-0.0103 c 7.0008,-8.68524 10.4324,-19.84849 10.4324,-32.97266 0,-13.11955 -3.43,-24.2628 -10.4324,-32.90227 -6.996,-8.67928 -16.4798,-13.29445 -27.4337,-13.29445 -6.1247,0 -11.7344,1.24275 -16.6452,3.8033 -2.3322,1.19312 -4.5335,2.71562 -6.621,4.50724 l 0,-34.33027 a 3.6070423,3.6070423 0 0 0 -3.6063,-3.60619 l -25.9312,0 z m -280.678,2.60861 c -13.5719,0 -24.4896,3.02097 -32.2948,9.52535 -7.7977,6.4981 -11.7277,16.07198 -11.7277,27.61666 0,9.29081 2.8042,17.22715 8.4915,23.02496 a 3.6070423,3.6070423 0 0 0 0.012,0.0121 c 5.7399,5.79515 14.3337,9.66283 25.5652,12.0696 l -0.024,-0.004 10.7925,2.38938 c 6.336,1.39766 10.3963,3.17771 11.5587,4.1593 a 3.6070423,3.6070423 0 0 0 0.03,0.0262 c 1.3827,1.14227 2.0233,2.45272 2.0233,5.04223 0,2.73362 -0.7772,4.14074 -3.1617,5.63557 -2.3735,1.48786 -6.3824,2.49195 -12.0656,2.49195 -5.6089,0 -11.4929,-0.85951 -17.671,-2.6086 l -0.01,-0.002 c -6.1483,-1.80356 -12.5875,-4.47828 -19.3061,-8.04907 a 3.6070423,3.6070423 0 0 0 -5.2997,3.18382 l 0,23.53984 a 3.6070423,3.6070423 0 0 0 2.3532,3.38093 c 7.0855,2.62611 14.1867,4.61444 21.2992,5.95737 7.1188,1.34409 14.2275,2.01931 21.3134,2.01931 15.0144,0 26.6789,-2.94677 34.6682,-9.51329 8.0283,-6.60819 11.9609,-16.79814 11.9609,-29.44088 0,-9.75 -2.8362,-17.89519 -8.7007,-23.59213 -5.8808,-5.71282 -15.0507,-9.47062 -27.4416,-11.95897 l 0,0 -11.8645,-2.38737 -0.012,-0.002 c -5.3804,-1.10487 -8.9464,-2.52363 -10.2716,-3.4815 -1.2801,-1.00114 -1.7558,-1.92855 -1.7558,-3.92196 0,-2.87117 0.7354,-4.13114 2.9747,-5.42036 2.2455,-1.29285 6.6442,-2.27274 12.9767,-2.27274 4.6976,0 9.7538,0.63493 15.1689,1.93082 5.4081,1.29427 10.9911,3.22147 16.7497,5.79646 a 3.6070423,3.6070423 0 0 0 5.0786,-3.29244 l 0,-22.88818 a 3.6070423,3.6070423 0 0 0 -2.6791,-3.48552 c -6.8322,-1.81868 -13.46,-3.1754 -19.8893,-4.06677 -0.01,-10e-4 -0.017,-0.003 -0.026,-0.004 -6.4295,-0.93848 -12.7048,-1.4099 -18.8214,-1.4099 z m -100.2453,27.01731 c -14.6545,0 -26.731,4.05525 -35.5089,12.35721 a 3.6070423,3.6070423 0 0 0 -0.01,0.008 c -8.7265,8.30363 -13.0711,19.87652 -13.0711,33.83147 0,14.19632 4.4237,25.86898 13.3286,34.0849 a 3.6070423,3.6070423 0 0 0 0.016,0.0141 c 8.9565,8.1615 21.4025,12.09776 36.6915,12.09776 6.3692,0 12.7359,-0.62969 19.0909,-1.88054 l 0,0 c 6.3394,-1.19963 12.6683,-2.99522 18.9783,-5.38013 a 3.6070423,3.6070423 0 0 0 2.3311,-3.37289 l 0,-19.98995 a 3.6070423,3.6070423 0 0 0 -5.3299,-3.16774 c -5.831,3.1721 -11.4776,5.52457 -16.9308,7.08367 -5.4072,1.51146 -10.6488,2.25462 -15.7522,2.25463 -6.2192,0 -10.5777,-1.38361 -13.5237,-3.76308 -2.1325,-1.72235 -3.6383,-4.05816 -4.5254,-7.27675 l 56.2933,0 a 3.6070423,3.6070423 0 0 0 3.6062,-3.60619 l 0,-7.38738 c 0,-13.55892 -4.1806,-24.93836 -12.5644,-33.32664 l 0,-0.004 c -8.3369,-8.38747 -19.6495,-12.57643 -33.1194,-12.57643 z m 209.1855,0 c -15.2451,0 -27.7156,3.99039 -36.7559,12.23251 -7e-4,6.4e-4 0,10e-4 0,0.002 -9.0481,8.20271 -13.5679,19.84535 -13.5679,33.96221 0,14.11796 4.5174,25.77734 13.5599,34.02657 a 3.6070423,3.6070423 0 0 0 0.01,0.008 c 9.0426,8.19654 21.5091,12.16212 36.7559,12.16212 4.4142,0 8.8055,-0.40759 13.1637,-1.21681 4.412,-0.76196 8.7484,-1.92824 13.0008,-3.4976 a 3.6070423,3.6070423 0 0 0 2.3572,-3.38295 l 0,-21.22285 a 3.6070423,3.6070423 0 0 0 -5.7984,-2.86404 c -2.7784,2.12714 -5.7838,3.7163 -9.0749,4.79888 a 3.6070423,3.6070423 0 0 0 -0.014,0.004 c -3.238,1.07936 -6.6772,1.62511 -10.3761,1.62511 -6.5363,0 -11.0286,-1.76789 -14.3383,-5.18705 -3.2634,-3.46952 -5.0161,-8.3187 -5.0161,-15.25343 0,-6.9458 1.7544,-11.7683 5.014,-15.18505 3.316,-3.47376 7.8023,-5.25745 14.3404,-5.25745 3.4499,0 6.7253,0.52049 9.8834,1.55874 a 3.6070423,3.6070423 0 0 0 0.014,0.004 c 3.2053,1.03954 6.4442,2.65807 9.7224,4.90346 a 3.6070423,3.6070423 0 0 0 5.6437,-2.97465 l 0,-21.15045 a 3.6070423,3.6070423 0 0 0 -2.3713,-3.38899 c -4.2811,-1.56135 -8.6005,-2.72342 -12.9525,-3.48551 l -0.01,-0.002 c -4.3244,-0.81349 -8.725,-1.21883 -13.1898,-1.21883 z m 100.3902,0 c -6.5209,0 -12.3704,1.34388 -17.3371,4.15528 -8e-4,4.4e-4 0,0.002 0,0.002 -2.1667,1.21756 -4.1737,2.7896 -6.0719,4.59573 l 0,-3.19187 a 3.6070423,3.6070423 0 0 0 -3.6062,-3.6062 l -25.9312,0 a 3.6070423,3.6070423 0 0 0 -3.6063,3.6062 l 0,81.12434 a 3.6070423,3.6070423 0 0 0 3.6063,3.60619 l 25.9312,0 a 3.6070423,3.6070423 0 0 0 3.6062,-3.60619 l 0,-37.37533 c 0,-7.42602 1.654,-12.59984 4.5112,-15.9996 2.919,-3.46394 6.7825,-5.16493 12.671,-5.16493 1.9886,0 3.9463,0.2314 5.8971,0.69791 a 3.6070423,3.6070423 0 0 0 0.089,0.0201 c 1.9837,0.42201 3.9916,1.10047 6.0318,2.0555 a 3.6070423,3.6070423 0 0 0 5.1348,-3.27835 l -0.072,-23.46744 a 3.6070423,3.6070423 0 0 0 -3.1596,-3.56597 c -1.949,-0.24356 -3.4401,-0.39172 -4.6219,-0.45052 -1.0732,-0.0995 -2.0977,-0.15688 -3.0692,-0.15688 z m 212.2286,0 c -5.7467,0 -11.4933,0.37088 -17.2365,1.11223 -0.01,10e-4 -0.021,0.003 -0.03,0.004 -5.7339,0.69326 -11.4416,1.73044 -17.1218,3.11344 a 3.6070423,3.6070423 0 0 0 -2.7535,3.50362 l 0,19.77475 a 3.6070423,3.6070423 0 0 0 5.3238,3.17177 c 3.8105,-2.0622 7.9398,-3.61393 12.4257,-4.65608 4.4804,-1.0409 9.3711,-1.57281 14.6841,-1.57281 6.5188,0 11.0185,1.031 13.2905,2.38737 a 3.6070423,3.6070423 0 0 0 0.034,0.0201 c 1.7602,1.02465 2.4619,2.354 2.7614,4.28601 l -11.3777,0 c -14.3853,0 -25.3257,2.17579 -32.8781,7.2848 a 3.6070423,3.6070423 0 0 0 -0.01,0.006 c -7.5089,5.11717 -11.3536,13.57715 -11.3536,23.91392 0,8.62457 3.0465,16.16427 8.9542,21.74378 a 3.6070423,3.6070423 0 0 0 0.024,0.0221 c 5.9651,5.52728 13.85,8.27837 22.9506,8.27837 6.658,0 12.5364,-1.18795 17.504,-3.72687 a 3.6070423,3.6070423 0 0 0 0.028,-0.0141 c 2.2885,-1.19518 4.4308,-2.73513 6.4582,-4.53338 l 0,2.56637 a 3.6070423,3.6070423 0 0 0 3.6062,3.6062 l 26.1485,0 a 3.6070423,3.6070423 0 0 0 3.6061,-3.6062 l 0,-46.28321 c 0,-13.58401 -3.4656,-24.15775 -10.9856,-30.79648 -7.4773,-6.69273 -18.9488,-9.60579 -34.0526,-9.60579 z m -191.8745,1.95495 a 3.6070423,3.6070423 0 0 0 -3.6063,3.6062 l 0,81.12434 a 3.6070423,3.6070423 0 0 0 3.6063,3.60619 l 25.9311,0 a 3.6070423,3.6070423 0 0 0 3.6063,-3.60619 l 0,-81.12434 a 3.6070423,3.6070423 0 0 0 -3.6063,-3.6062 l -25.9311,0 z m -330.0746,22.49599 c 3.8464,0 6.412,1.0932 8.5941,3.42317 a 3.6070423,3.6070423 0 0 0 0.04,0.0422 c 1.4732,1.52233 2.2781,3.49493 2.7735,5.76429 l -24.7687,0 c 0.8565,-2.41534 1.9479,-4.46828 3.5197,-5.87088 a 3.6070423,3.6070423 0 0 0 0.023,-0.0201 c 2.4297,-2.20544 5.4791,-3.3387 9.819,-3.3387 z m 424.2379,1.59293 c 4.675,0 7.4765,1.40404 9.7406,4.5736 a 3.6070423,3.6070423 0 0 0 0.016,0.0241 c 2.3056,3.17507 3.7308,8.28742 3.7308,15.55512 0,7.26768 -1.4249,12.37758 -3.7308,15.5531 a 3.6070423,3.6070423 0 0 0 -0.016,0.0241 c -2.2641,3.16957 -5.0656,4.57362 -9.7406,4.57362 -4.6644,0 -7.5438,-1.41867 -9.9015,-4.60177 -2.317,-3.23956 -3.7309,-8.34462 -3.7309,-15.54908 0,-7.21303 1.418,-12.29643 3.7249,-15.47668 l 0,-0.002 c 8e-4,-0.001 0,-0.003 0,-0.004 2.3669,-3.24192 5.2417,-4.67015 9.9035,-4.67015 z m 99.5213,27.74136 9.8191,0 c -0.1237,4.16033 -1.3813,7.32914 -3.9542,10.05631 -2.7221,2.83768 -5.6853,4.09896 -9.7024,4.09896 -3.3258,-10e-6 -5.4474,-0.74966 -6.8664,-1.90868 -1.3617,-1.19488 -1.9871,-2.52368 -1.9871,-4.98794 0,-2.65649 0.6713,-3.89506 2.4658,-5.11665 1.8481,-1.22723 5.2343,-2.142 10.2252,-2.142 z"
           id="path4554" />
        <g
           id="g4366"
           transform="matrix(1.2447253,0,0,1.2447253,-360.59119,-94.937463)">
          <path
             d="m 1400.2122,-592.26133 0,5.93555 -48.7064,0 q 0.7564,7.33216 5.2954,10.99824 4.539,3.66608 12.6858,3.66608 6.5757,0 13.4423,-1.92033 6.9248,-1.97852 14.1988,-5.93556 l 0,16.06092 q -7.3904,2.79321 -14.7807,4.18981 -7.3904,1.45479 -14.7807,1.45479 -17.6903,0 -27.5247,-8.96153 -9.7762,-9.01971 -9.7762,-25.25521 0,-15.94453 9.6016,-25.08063 9.6598,-9.13611 26.5354,-9.13611 15.3627,0 24.5569,9.25249 9.2525,9.25248 9.2525,24.73149 z m -21.4145,-6.92482 q 0,-5.93556 -3.4915,-9.54344 -3.4333,-3.66608 -9.0197,-3.66608 -6.052,0 -9.8345,3.43331 -3.7824,3.37512 -4.7135,9.77621 l 27.0592,0 z"
             style="font-style:normal;font-variant:normal;font-weight:bold;font-stretch:normal;font-size:medium;line-height:125%;font-family:sans-serif;-inkscape-font-specification:'sans-serif Bold';letter-spacing:0px;word-spacing:0px;fill:#000000;fill-opacity:1;stroke:none;stroke-width:1px;stroke-linecap:butt;stroke-linejoin:miter;stroke-opacity:1"
             id="path4341"
             inkscape:connector-curvature="0" />
          <path
             d="m 1477.3163,-643.64463 0,18.38858 q -7.1576,-3.20054 -13.966,-4.82991 -6.8085,-1.62937 -12.8604,-1.62937 -8.0305,0 -11.8711,2.21129 -3.8407,2.21128 -3.8407,6.86662 0,3.49151 2.5605,5.47002 2.6186,1.92033 9.427,3.31693 l 9.5435,1.92033 q 14.4897,2.90959 20.5998,8.84514 6.1102,5.93556 6.1102,16.87561 0,14.37335 -8.5542,21.41455 -8.496,6.98301 -26.0117,6.98301 -8.2632,0 -16.5847,-1.57118 -8.3214,-1.57117 -16.6428,-4.65533 l 0,-18.91232 q 8.3214,4.42257 16.0609,6.69205 7.7977,2.21129 15.0135,2.21129 7.3321,0 11.231,-2.44406 3.8988,-2.44405 3.8988,-6.983 0,-4.07342 -2.6768,-6.28471 -2.6186,-2.21129 -10.5327,-3.95704 l -8.6706,-1.92032 q -13.0349,-2.79321 -19.0868,-8.90334 -5.9938,-6.11013 -5.9938,-16.46826 0,-12.97676 8.3796,-19.95976 8.3796,-6.98301 24.0914,-6.98301 7.1576,0 14.7225,1.10564 7.5649,1.04745 15.6536,3.20055 z"
             style="font-style:normal;font-variant:normal;font-weight:bold;font-stretch:normal;font-size:medium;line-height:125%;font-family:sans-serif;-inkscape-font-specification:'sans-serif Bold';letter-spacing:0px;word-spacing:0px;fill:#000000;fill-opacity:1;stroke:none;stroke-width:1px;stroke-linecap:butt;stroke-linejoin:miter;stroke-opacity:1"
             id="path4343"
             inkscape:connector-curvature="0" />
          <path
             d="m 1554.4785,-622.63742 0,16.99199 q -4.248,-2.90959 -8.5542,-4.30619 -4.248,-1.3966 -8.8451,-1.3966 -8.7288,0 -13.6169,5.12087 -4.8299,5.06268 -4.8299,14.19878 0,9.1361 4.8299,14.25698 4.8881,5.06268 13.6169,5.06268 4.8881,0 9.2525,-1.4548 4.4226,-1.45479 8.1468,-4.30618 l 0,17.05017 q -4.8881,1.80395 -9.9508,2.67682 -5.0044,0.93107 -10.0671,0.93107 -17.6321,0 -27.5829,-9.01972 -9.9508,-9.07791 -9.9508,-25.19702 0,-16.11911 9.9508,-25.13883 9.9508,-9.07791 27.5829,-9.07791 5.1208,0 10.0671,0.93107 5.0045,0.87288 9.9508,2.67682 z"
             style="font-style:normal;font-variant:normal;font-weight:bold;font-stretch:normal;font-size:medium;line-height:125%;font-family:sans-serif;-inkscape-font-specification:'sans-serif Bold';letter-spacing:0px;word-spacing:0px;fill:#000000;fill-opacity:1;stroke:none;stroke-width:1px;stroke-linecap:butt;stroke-linejoin:miter;stroke-opacity:1"
             id="path4345"
             inkscape:connector-curvature="0" />
          <path
             d="m 1620.9917,-606.92565 q -2.735,-1.28022 -5.4701,-1.86214 -2.6768,-0.64011 -5.4118,-0.64011 -8.0304,0 -12.3948,5.17907 -4.3062,5.12087 -4.3062,14.72251 l 0,30.02693 -20.8327,0 0,-65.17474 20.8327,0 0,10.70728 q 4.0152,-6.40109 9.1943,-9.31068 5.2372,-2.96778 12.5112,-2.96778 1.0475,0 2.2695,0.11639 1.222,0.0582 3.5497,0.34915 l 0.058,18.85412 z"
             style="font-style:normal;font-variant:normal;font-weight:bold;font-stretch:normal;font-size:medium;line-height:125%;font-family:sans-serif;-inkscape-font-specification:'sans-serif Bold';letter-spacing:0px;word-spacing:0px;fill:#000000;fill-opacity:1;stroke:none;stroke-width:1px;stroke-linecap:butt;stroke-linejoin:miter;stroke-opacity:1"
             id="path4347"
             inkscape:connector-curvature="0" />
          <path
             id="path4364"
             d="m 1631.4662,-624.67413 20.8326,0 0,65.17474 -20.8326,0 0,-65.17474 z"
             style="font-style:normal;font-variant:normal;font-weight:bold;font-stretch:normal;font-size:medium;line-height:125%;font-family:sans-serif;-inkscape-font-specification:'sans-serif Bold';letter-spacing:0px;word-spacing:0px;fill:#000000;fill-opacity:1;stroke:none;stroke-width:1px;stroke-linecap:butt;stroke-linejoin:miter;stroke-opacity:1"
             inkscape:connector-curvature="0" />
          <path
             d="m 1707.1154,-572.94168 q 6.6921,0 10.1836,-4.88811 3.5497,-4.8881 3.5497,-14.19878 0,-9.31067 -3.5497,-14.19878 -3.4915,-4.88811 -10.1836,-4.88811 -6.692,0 -10.2999,4.9463 -3.5497,4.88811 -3.5497,14.14059 0,9.25249 3.5497,14.19878 3.6079,4.88811 10.2999,4.88811 z m -13.8496,-42.18901 q 4.3062,-5.70278 9.5435,-8.3796 5.2372,-2.73502 12.0456,-2.73502 12.0457,0 19.7852,9.60164 7.7395,9.54344 7.7395,24.6151 0,15.07166 -7.7395,24.6733 -7.7395,9.54344 -19.7852,9.54344 -6.8084,0 -12.0456,-2.67682 -5.2373,-2.73501 -9.5435,-8.4378 l 0,9.42706 -20.8326,0 0,-90.54633 20.8326,0 0,34.91503 z"
             style="font-style:normal;font-variant:normal;font-weight:bold;font-stretch:normal;font-size:medium;line-height:125%;font-family:sans-serif;-inkscape-font-specification:'sans-serif Bold';letter-spacing:0px;word-spacing:0px;fill:#000000;fill-opacity:1;stroke:none;stroke-width:1px;stroke-linecap:butt;stroke-linejoin:miter;stroke-opacity:1"
             id="path4351"
             inkscape:connector-curvature="0" />
          <path
             d="m 1787.0709,-588.82802 q -6.5175,0 -9.8344,2.21128 -3.2588,2.21129 -3.2588,6.51748 0,3.95704 2.6187,6.22651 2.6768,2.21129 7.3903,2.21129 5.8774,0 9.8926,-4.18981 4.0152,-4.24799 4.0152,-10.59089 l 0,-2.38586 -10.8236,0 z m 31.8308,-7.85589 0,37.18452 -21.0072,0 0,-9.65983 q -4.1898,5.93556 -9.427,8.67057 -5.2373,2.67682 -12.744,2.67682 -10.1254,0 -16.4683,-5.87736 -6.2847,-5.93556 -6.2847,-15.36262 0,-11.46377 7.8559,-16.81741 7.9141,-5.35364 24.7897,-5.35364 l 12.2784,0 0,-1.62937 q 0,-4.9463 -3.8988,-7.21577 -3.8989,-2.32767 -12.1621,-2.32767 -6.692,0 -12.453,1.33841 -5.761,1.33841 -10.7073,4.01523 l 0,-15.88635 q 6.6921,-1.62937 13.4423,-2.44405 6.7502,-0.87288 13.5005,-0.87288 17.6321,0 25.4298,6.98301 7.8558,6.92482 7.8558,22.57839 z"
             style="font-style:normal;font-variant:normal;font-weight:bold;font-stretch:normal;font-size:medium;line-height:125%;font-family:sans-serif;-inkscape-font-specification:'sans-serif Bold';letter-spacing:0px;word-spacing:0px;fill:#000000;fill-opacity:1;stroke:none;stroke-width:1px;stroke-linecap:butt;stroke-linejoin:miter;stroke-opacity:1"
             id="path4353"
             inkscape:connector-curvature="0" />
        </g>
        <path
           inkscape:connector-curvature="0"
           style="font-style:normal;font-variant:normal;font-weight:bold;font-stretch:normal;font-size:medium;line-height:125%;font-family:sans-serif;-inkscape-font-specification:'sans-serif Bold';letter-spacing:0px;word-spacing:0px;fill:#292929;fill-opacity:1;stroke:none;stroke-width:1px;stroke-linecap:butt;stroke-linejoin:miter;stroke-opacity:1"
           d="m 1723.7041,-901.23421 0,109.87335 23.3549,0 0,-11.73372 c 0.836,1.10724 1.6959,2.14101 2.5744,3.11343 l 0,-0.28157 c 0.4381,0.58033 0.8816,1.14214 1.3315,1.68543 2.4962,2.51149 5.1531,4.51208 7.9746,5.98552 4.3459,2.22127 9.3422,3.33267 14.9919,3.33267 9.9957,0 18.2056,-3.96123 24.628,-11.88054 6.4223,-7.96759 9.6339,-18.20326 9.6339,-30.70998 0,-12.50672 -3.2116,-22.72029 -9.6339,-30.6396 -0.073,-0.0907 -0.1498,-0.17384 -0.2233,-0.26348 -5.9552,-5.89842 -13.2298,-8.85559 -21.8302,-8.85559 -5.6497,0 -10.6461,1.13349 -14.992,3.40306 -4.3459,2.22127 -8.3071,5.69815 -11.8805,10.43042 l 0,-5.94128 c -0.8785,0.96975 -1.7384,2.00222 -2.5744,3.10942 l 0,-40.62754 -23.3549,0 z m -280.6779,2.6086 c -13.0379,0 -23.0344,2.89606 -29.9879,8.69068 -6.9536,5.79461 -10.4305,14.07681 -10.4305,24.84514 0,7.41948 1.859,13.5236 5.5652,18.31659 5.0446,4.73579 12.7322,8.21521 23.0793,10.43242 l 10.7924,2.38938 c 6.5672,1.44866 10.9384,3.09061 13.1114,4.9256 0.8501,0.70222 1.533,1.52096 2.0576,2.44971 0.1747,0.12724 0.3639,0.25298 0.5168,0.38215 2.2212,1.83496 3.3307,4.44362 3.3307,7.82381 0,3.76649 -1.6159,6.66256 -4.8511,8.69067 -3.2355,2.02812 -7.8961,3.04304 -13.9804,3.04304 -5.9877,0 -12.2179,-0.91845 -18.6886,-2.75342 -6.4224,-1.88325 -13.0847,-4.65872 -19.9899,-8.32865 l 0,21.63317 c 6.0475,2.10476 12.094,3.72745 18.1416,4.86926 6.9052,1.30379 13.7845,1.95696 20.6416,1.95696 14.5347,0 25.3271,-2.89806 32.3773,-8.69268 7.0984,-5.84291 10.6496,-14.72804 10.6496,-26.65528 0,-7.64805 -1.8074,-13.81703 -5.4062,-18.51771 -5.1111,-4.75124 -13.5277,-8.30832 -25.2675,-10.66573 l -11.8786,-2.38939 c -5.6497,-1.15892 -9.5608,-2.5356 -11.7337,-4.12912 -0.9507,-0.73455 -1.6769,-1.60231 -2.2024,-2.58849 -0.1219,-0.0815 -0.2594,-0.16077 -0.372,-0.24337 -2.1248,-1.6418 -3.1879,-3.91283 -3.1879,-6.81014 0,-3.86309 1.5937,-6.71091 4.7808,-8.54586 3.187,-1.83497 8.1128,-2.75342 14.7768,-2.75342 5.0219,0 10.3578,0.67728 16.0076,2.02936 5.6497,1.35208 11.4438,3.35582 17.3833,6.01167 l 0,-20.70395 c -5.7983,-1.45349 -11.4423,-2.57952 -16.9106,-3.33669 -6.2775,-0.91748 -12.3852,-1.37571 -18.3247,-1.37571 z m -100.2475,27.01732 c -14.0036,0 -25.013,3.79038 -33.0289,11.37168 -7.9675,7.58129 -11.9509,17.9878 -11.951,31.21885 10e-5,11.38659 2.91,20.62429 8.7048,27.73332 0.2946,0.29087 0.583,0.58651 0.889,0.86886 8.1607,7.43643 19.5822,11.15648 34.2618,11.15648 6.1327,0 12.2645,-0.60494 18.3971,-1.81214 6.1326,-1.15892 12.2664,-2.89737 18.3991,-5.21522 l 0,-15.80652 c -5.1395,2.61391 -10.1745,4.62834 -15.1006,6.0358 -5.698,1.59353 -11.2751,2.38938 -16.7317,2.38939 -6.7604,0 -12.0239,-1.52139 -15.7904,-4.56356 -1.1345,-0.91625 -2.109,-1.98773 -2.9586,-3.17981 -3.523,-3.0382 -5.6017,-7.47453 -6.2068,-13.34071 l 60.6255,0 0,-7.38737 c 0,-11.37976 -3.0203,-20.72676 -9.0466,-28.05111 -7.6183,-7.6097 -17.7711,-11.41794 -30.4627,-11.41794 z m 209.1856,0 c -14.6314,0 -26.0749,3.76628 -34.3322,11.29928 -8.2574,7.48472 -12.3854,17.91533 -12.3854,31.29125 0,11.22395 2.9188,20.38048 8.7329,27.48995 0.3542,0.3502 0.707,0.70142 1.0781,1.03983 8.2572,7.48471 19.7007,11.22888 34.3322,11.22888 4.2011,0 8.3795,-0.38788 12.5322,-1.1605 4.2011,-0.72432 8.3291,-1.8337 12.3854,-3.33065 l 0,-16.60097 c -2.3684,1.49681 -4.8899,2.68957 -7.5664,3.56999 -3.6216,1.20722 -7.4603,1.81014 -11.5166,1.81014 -7.2432,0 -12.8926,-2.1002 -16.9489,-6.30129 -0.5455,-0.57835 -1.0513,-1.19021 -1.5225,-1.83025 -0.3606,-0.3213 -0.7134,-0.65107 -1.0519,-1.00161 -4.0079,-4.2494 -6.0116,-10.16409 -6.0116,-17.74538 0,-7.58129 2.0037,-13.4739 6.0116,-17.675 4.0562,-4.24938 9.7057,-6.37369 16.9489,-6.37369 3.8148,0 7.4846,0.57881 11.0097,1.73773 3.5734,1.15892 7.1226,2.9456 10.6477,5.36002 l 0,-19.19551 c -3.2556,-1.05651 -6.525,-1.8806 -9.811,-2.45374 -4.1045,-0.77261 -8.2829,-1.15848 -12.5322,-1.15848 z m 100.3922,0 c -6.0361,0 -11.2272,1.22996 -15.5732,3.69268 -4.2977,2.41442 -8.1123,6.27918 -11.4441,11.59091 l 0,-6.52454 c -0.888,1.14167 -1.746,2.37209 -2.5744,3.69268 l 0,-10.49678 -23.3568,0 0,78.29248 23.3568,0 0,-37.37533 c 0,-7.9676 1.7867,-14.07524 5.3601,-18.32463 3.6215,-4.29767 8.7646,-6.44609 15.4283,-6.44609 2.2695,0 4.5145,0.26528 6.7357,0.79646 2.2691,0.48275 4.5392,1.25502 6.8083,2.31698 l -0.063,-20.92721 c -0.7291,-0.0715 -1.3492,-0.11883 -1.8523,-0.1428 -1.014,-0.0966 -1.9567,-0.14481 -2.8259,-0.14481 z m 212.2287,0 c -5.6016,0 -11.2027,0.36175 -16.8042,1.08608 -5.6013,0.67603 -11.1784,1.68896 -16.7317,3.04103 l 0,15.64965 c 3.3717,-1.58395 6.9533,-2.82218 10.7523,-3.70476 4.7805,-1.11063 9.9476,-1.66531 15.5007,-1.66531 6.857,0 11.9034,0.96467 15.1388,2.89622 1.5412,0.89709 2.7046,2.05404 3.5118,3.45535 2.6038,1.89461 3.9158,4.67654 3.9158,8.3588 l 0,2.02736 -15.2835,0 c -14.0038,0 -24.2896,2.22278 -30.8568,6.66533 -6.5192,4.44254 -9.7788,11.42041 -9.7788,20.93323 0,6.3726 1.732,11.7833 5.193,16.23292 0.02,0.0184 0.037,0.038 0.057,0.0563 5.2634,4.87713 12.0965,7.31698 20.4988,7.31698 6.2291,0 11.5168,-1.1114 15.8629,-3.33266 4.3458,-2.26955 8.2568,-5.86701 11.7336,-10.79244 l 0,6.13837 c 0.8827,-1.02743 1.7416,-2.12669 2.5745,-3.30651 l 0,9.19148 23.574,0 0,-46.28322 c 0,-10.74755 -2.2387,-19.00962 -6.7015,-24.79888 -0.1683,-0.1574 -0.3301,-0.32235 -0.5028,-0.47466 -6.4707,-5.79462 -17.0219,-8.69067 -31.6533,-8.69067 z m -191.8746,1.95495 0,78.29248 23.3568,0 0,-78.29248 -23.3568,0 z m -332.6511,12.45174 c 4.6357,0 8.3779,1.52137 11.227,4.56355 0.5184,0.53572 0.9721,1.11405 1.3978,1.71159 0.4067,0.3483 0.8008,0.71907 1.1766,1.12027 2.8972,2.99388 4.3463,6.95309 4.3463,11.87852 l -33.6807,0 c 0.1444,-0.99265 0.3443,-1.92692 0.5712,-2.83186 l -3.1456,0 c 0.7726,-5.31173 2.7282,-9.36742 5.8669,-12.16814 3.1388,-2.84903 7.2185,-4.27393 12.2405,-4.27393 z m 424.24,1.59291 c 5.5531,0 9.7777,2.02785 12.675,6.08407 0.026,0.0348 0.049,0.0716 0.074,0.1066 0.921,0.775 1.7547,1.68184 2.5,2.72526 2.9456,4.05624 4.4188,9.94884 4.4188,17.675 0,7.72616 -1.4732,13.61674 -4.4188,17.67298 -2.8973,4.05623 -7.1218,6.08407 -12.675,6.08407 -5.5531,0 -9.828,-2.02784 -12.8218,-6.08407 -0.054,-0.0751 -0.1039,-0.15499 -0.1568,-0.2313 -0.8814,-0.74742 -1.6882,-1.61239 -2.4176,-2.60056 -2.9457,-4.10452 -4.4188,-9.99511 -4.4188,-17.67298 0,-7.67786 1.4731,-13.54635 4.4188,-17.60258 2.9938,-4.10453 7.2687,-6.15649 12.8218,-6.15649 z m 99.5214,27.74137 13.4734,0 0,2.83186 2.5744,0 0,2.97063 c 0,5.26345 -1.6661,9.65678 -4.9979,13.18183 -3.3319,3.47678 -7.4379,5.21521 -12.315,5.21521 -3.9114,-1e-5 -6.9762,-0.91645 -9.1976,-2.75141 -0.8053,-0.69797 -1.46,-1.49283 -1.9669,-2.38335 -0.2059,-0.14564 -0.4143,-0.289 -0.6075,-0.44851 -2.1729,-1.88325 -3.2602,-4.46779 -3.2602,-7.75141 0,-3.57335 1.3525,-6.27647 4.0567,-8.11143 2.7525,-1.83496 6.8322,-2.75342 12.2406,-2.75342 z"
           id="path4452" />
      </g>
    </g>
    <g
       id="g4939"
       style="fill:#950058;fill-opacity:1">
      <g
         id="g4949"
         transform="translate(920,-76.000001)"
         inkscape:export-xdpi="17.406199"
         inkscape:export-ydpi="17.406199">
        <path
           style="opacity:0.98999999;fill:#950058;fill-opacity:1;fill-rule:evenodd;stroke:none;stroke-width:10;stroke-linecap:round;stroke-linejoin:round;stroke-miterlimit:4;stroke-dasharray:none;stroke-opacity:1"
           d="M -117.94149,1161.2198 C -73.13145,1076.484 103.6917,829.52073 192.0094,710.9302 115.39635,785.01076 68.476091,846.92304 -15.39627,975.69591 -28.1598,928.30282 -74.04348,882.31008 -50.70508,834.91695 -34.58299,799.94115 40.847227,726.69101 130.8377,653.24489 c 7.77339,-6.34428 13.52346,18.22316 14.02348,48.14353 8.10279,-32.01793 25.88198,-80.00152 34.11968,-86.36246 C 318.41507,507.35855 423.78455,471.51392 494.76867,460.25622 372.98935,559.189 323.7356,645.20795 294.44902,719.08311 c -2.18555,5.51301 -68.21818,15.22229 -101.64933,34.99098 32.79878,-8.47998 90.77618,-5.86388 88.61687,0.38705 C 242.0322,868.47438 234.32966,946.00381 27.335013,999.43442 2.1058301,1019.3253 -61.11304,1094.8269 -78.34295,1139.2006 c -7.55131,19.4476 -26.9931,64.5086 -50.58335,96.6414 z"
           id="path4899"
           inkscape:connector-curvature="0"
           sodipodi:nodetypes="ccccccccccccscc" />
        <path
           style="font-style:normal;font-variant:normal;font-weight:normal;font-stretch:normal;font-size:medium;line-height:125%;font-family:'Bad Script';-inkscape-font-specification:'Bad Script';letter-spacing:0px;word-spacing:0px;fill:#950058;fill-opacity:1;stroke:none;stroke-width:1px;stroke-linecap:butt;stroke-linejoin:miter;stroke-opacity:1"
           d="m -1242.5215,566.54688 c -28.688,0 -51.437,11.08883 -65.6601,32.61328 0,0.004 -0.01,0.006 -0.01,0.01 -13.8636,20.80651 -20.7285,45.76721 -20.7285,74.28125 0,29.65955 15.5257,78.40948 45.9043,149.04883 30.1239,70.04698 44.8828,121.24826 44.8828,151.74796 0,31.1216 -8.4004,56.8782 -25.1777,78.1524 a 6.2737015,6.2737015 0 0 0 -0.01,0.012 c -19.5848,24.9576 -44.29,36.9766 -76.0058,36.9766 -32.2598,0 -57.8402,-7.0558 -77.3379,-20.7383 a 6.2737015,6.2737015 0 0 0 -0.043,-0.029 c -9.8523,-6.7947 -17.6478,-15.1824 -23.5742,-25.3418 -5.6162,-9.6279 -8.7148,-23.0933 -8.7148,-40.5918 0,-17.0631 4.6786,-35.0051 14.33,-53.9746 5.3842,-10.094 17.29,-24.072 35.6036,-40.9492 a 6.2737015,6.2737015 0 0 0 1.0253,-1.2207 c 2.2652,-3.5236 3.4571,-7.6632 3.4571,-11.86913 0,-4.27505 -1.6091,-8.797 -5.0157,-11.60742 -3.4065,-2.81043 -7.6868,-3.68946 -12.1953,-3.68946 -5.2559,0 -10.0996,2.44213 -14.4531,6.14258 a 6.2737015,6.2737015 0 0 0 -0.096,0.082 c -11.3193,10.02033 -20.9362,19.81273 -28.8496,29.42183 -22.0437,26.7946 -33.1503,58.975 -33.1503,95.5918 0,37.0049 15.0847,66.682 44.2949,86.668 a 6.2737015,6.2737015 0 0 0 0.016,0.01 c 28.9906,19.7061 63.3761,29.5235 102.5176,29.5235 51.24,0 90.329,-18.8853 114.6055,-56.125 l 0.012,-0.018 c 18.6808,-28.1229 28.1093,-59.3651 28.1093,-93.1465 0,-33.8123 -8.0535,-71.447 -23.9296,-112.98437 l 0,-0.004 c -6.7875,-17.79394 -14.1235,-35.49307 -22.0098,-53.09961 l 0.024,0.0508 c -7.62,-17.41732 -14.7871,-34.8337 -21.4981,-52.2461 -6.6586,-17.27641 -12.2324,-34.53764 -16.7265,-51.78906 -4.2585,-17.0408 -6.3711,-33.56241 -6.3711,-49.59375 0,-15.46323 4.0553,-28.37976 12.1894,-39.50195 7.7806,-10.63878 18.5465,-15.75196 34.5879,-15.75195 16.1284,0 28.5669,5.02396 38.7344,15.35546 10.4209,10.58902 16.6845,23.16548 19.0547,38.40235 a 6.2737015,6.2737015 0 0 0 0,0.0137 c 0.6767,4.28558 2.1448,8.2048 5.0528,11.19141 2.908,2.9866 7.1546,4.49414 11.2617,4.49414 5.112,0 9.9103,-2.38489 13.8027,-6.02539 4.1168,-3.68571 6.9629,-8.57793 6.9629,-13.91993 0,-4.34402 -0.946,-8.50565 -3.1191,-12.03711 l 0.6699,1.49219 c -7.2729,-24.36907 -18.5719,-43.2381 -34.1738,-55.97656 -15.602,-12.73846 -35.3344,-19.05273 -58.2481,-19.05273 z m 718.35939,3.82812 c -7.24991,0 -13.13769,5.33966 -16.78711,12.42383 a 6.2737015,6.2737015 0 0 0 -0.60351,1.79297 c -7.83033,44.79671 -15.38615,84.84439 -22.66211,120.13281 -7.29063,35.1772 -12.39354,59.6959 -15.30664,73.5332 a 6.2737015,6.2737015 0 0 0 -0.0117,0.0625 c -2.73981,13.69903 -5.47988,27.85167 -8.21875,42.45899 -2.73822,14.60386 -5.65996,30.57089 -8.76172,47.90429 a 6.2737015,6.2737015 0 0 0 -0.008,0.0527 c -2.92195,17.16644 -6.0259,36.15031 -9.31055,56.95321 -3.28174,20.7843 -6.3797,40.4752 -9.29688,59.0722 a 6.2737015,6.2737015 0 0 0 -0.01,0.061 c -2.78176,18.9159 -4.16797,38.5445 -4.16797,58.8828 0,20.9275 4.40953,39.739 13.34961,56.0644 9.25057,16.8923 24.78054,26.2285 43.78515,26.2285 26.41014,0 49.51961,-17.4325 68.53711,-49.2421 l 0.006,-0.012 c 15.21677,-25.1768 26.97642,-56.5143 35.47071,-94 8.63933,-37.5037 13.00781,-70.0014 13.00781,-97.64062 0,-13.71858 -4.42582,-26.93771 -12.87695,-39.12305 -8.89011,-12.8183 -22.69524,-19.6543 -39.0625,-19.6543 -17.19322,0 -33.95499,9.88419 -50.29493,27.74414 -3.31244,3.62057 -6.87979,8.34725 -10.60546,13.67774 6.84225,-32.46707 13.65578,-64.82813 21.90429,-102.41993 l 0.004,-0.0215 c 11.31406,-50.73355 21.79491,-107.78931 31.45508,-171.16602 l 0.99023,-3.46484 a 6.2737015,6.2737015 0 0 0 0.24219,-1.72266 c 0,-5.33345 -1.84918,-10.62576 -5.83789,-14.01171 -3.98871,-3.38596 -9.21114,-4.56641 -14.92969,-4.56641 z m -146.02344,161.33594 c -8.19018,0 -15.9784,3.36391 -22.52539,9.27734 -6.53283,5.90061 -10.54686,13.20016 -10.54687,21.06055 0,7.00163 2.51684,13.59107 7.30859,18.38281 4.3852,4.38521 9.63634,7.30664 15.37305,7.30664 3.95963,0 7.69337,-0.29596 11.20703,-0.91601 a 6.2737015,6.2737015 0 0 0 0.041,-0.008 c 6.89517,-1.26411 12.90234,-5.17426 16.50976,-11.00586 3.60742,-5.83159 5.04102,-13.1209 5.04102,-21.68945 0,-6.42362 -1.70345,-12.36946 -5.8711,-16.53711 -4.16765,-4.16765 -10.11349,-5.87109 -16.53711,-5.87109 z m -26.79883,85.59179 c -6.18235,0 -12.03277,3.10012 -16.03906,8.01954 -3.90065,4.61776 -6.09375,10.34891 -6.09375,16.30078 a 6.2737015,6.2737015 0 0 0 0.22852,1.67968 c 2.69706,9.70942 3.87305,16.60379 3.87305,16.91602 l 0,5.46875 c 0,-0.92413 -0.0876,0.67676 -0.41211,2.47266 -0.32453,1.7959 -0.8288,4.34553 -1.50586,7.5957 -1.35414,6.50033 -3.40042,15.82275 -6.13086,27.92774 a 6.2737015,6.2737015 0 0 0 -0.008,0.035 c -5.28487,24.0552 -9.84142,44.5546 -13.66601,61.4921 a 6.2737015,6.2737015 0 0 0 -0.0137,0.062 c -3.64023,16.9271 -7.27902,33.3034 -10.91797,49.1328 a 6.2737015,6.2737015 0 0 0 -0.0156,0.068 c -3.46442,15.8635 -6.1998,28.4457 -8.20703,37.752 a 6.2737015,6.2737015 0 0 0 -0.0176,0.092 c -1.78993,8.9497 -3.57728,15.9439 -5.24804,20.789 a 6.2737015,6.2737015 0 0 0 -0.043,0.125 c -1.7938,5.5808 -2.76172,10.8542 -2.76172,15.8653 0,10.8622 1.55217,19.5965 5.73828,26.2949 4.18612,6.6984 11.62237,10.6054 19.67578,10.6054 7.41912,0 15.77524,-3.3182 27.41602,-9.1386 6.146,-3.073 11.07018,-6.5042 14.66406,-10.6778 3.59388,-4.1735 5.75781,-9.3031 5.75781,-14.6211 0,-4.6496 -0.83697,-8.9782 -3.5957,-12.4902 -2.75873,-3.512 -7.36207,-5.2695 -11.70117,-5.2695 -6.2966,0 -10.94443,3.8466 -15.82031,9.1289 l 0.084,-0.09 c -1.81579,1.8915 -3.41591,3.0142 -4.53516,3.7461 0.0355,-0.2578 0.012,-0.1193 0.0606,-0.4082 0.24991,-1.4861 0.64172,-3.5801 1.16992,-6.2265 1.0564,-5.2929 2.65767,-12.8153 4.79492,-22.5235 4.2745,-19.4163 10.69831,-47.5921 19.26368,-84.4961 8.57293,-36.9366 15.00369,-65.4893 19.30273,-85.70308 2.14952,-10.1069 3.76544,-18.12424 4.85547,-24.10743 1.09002,-5.98318 1.70898,-9.4582 1.70898,-12.47265 0,-7.64925 -1.6907,-14.91706 -5.07422,-21.47266 -3.52798,-6.83545 -9.63713,-11.87305 -16.78711,-11.87305 z m -186.2207,2.73438 c -3.37417,0 -6.70795,1.05527 -9.5664,2.85351 -8.40963,4.86869 -13.11329,13.919 -13.11329,24.20313 l 0,2.73437 c 0,0.90409 0.11227,1.75211 0.29493,2.56055 -9.00062,31.3731 -15.14202,55.82743 -18.2461,73.17383 a 6.2737015,6.2737015 0 0 0 -0.008,0.053 c -2.91845,17.1459 -5.56342,32.9245 -7.93555,47.3399 -2.34945,14.0958 -6.81337,38.2351 -13.37109,72.2988 a 6.2737015,6.2737015 0 0 0 -0.004,0.023 L -957.73242,1112 a 6.2737015,6.2737015 0 0 0 -0.10938,1.1621 c 0,4.1919 0.74412,8.1727 3.31836,11.457 2.57425,3.2844 6.90769,4.9336 10.88477,4.9336 8.36622,0 15.41743,-5.7763 20.21289,-14.1679 4.79546,-8.3917 8.30552,-19.9246 11.11133,-34.9825 0.9233,-4.8029 2.0206,-10.9253 3.29883,-18.4121 a 6.2737015,6.2737015 0 0 0 0.004,-0.025 c 1.15939,-6.9563 4.76998,-20.8354 10.75781,-40.7949 l 0,0.01 c 22.40535,-74.4435 50.86456,-123.4233 83.82227,-147.40822 a 6.2737015,6.2737015 0 0 0 0.0723,-0.0547 c 8.38254,-6.28689 14.78743,-8.58789 15.37696,-8.58789 2.96529,0 5.35762,0.67601 7.66797,2.08789 a 6.2737015,6.2737015 0 0 0 0.22461,0.13086 c 4.10037,2.27797 8.59996,3.52344 13.16406,3.52344 5.2243,0 10.18471,-2.31414 14.28516,-5.95899 4.25131,-3.77894 7.02734,-9.00556 7.02734,-14.5332 0,-5.0783 -2.08723,-10.09225 -5.77344,-13.55273 -8.13857,-8.25362 -19.88743,-12.13672 -33.85937,-12.13672 -14.58365,0 -28.73467,6.45023 -41.92774,18.28515 -12.55708,11.24575 -23.11997,23.21118 -31.64258,35.90039 a 6.2737015,6.2737015 0 0 0 -0.0371,0.0547 c -2.47713,3.77199 -3.43377,5.43239 -5.51562,8.6543 0.69621,-2.33751 1.23622,-4.51368 1.98047,-6.90039 a 6.2737015,6.2737015 0 0 0 0.006,-0.0176 c 5.35328,-17.35203 8.20898,-29.15142 8.20898,-37.39844 0,-6.37634 -0.98281,-11.85617 -4.05859,-16.29101 -3.07578,-4.43485 -8.54594,-6.93555 -13.97266,-6.93555 z m -638.78512,1.64062 c -23.249,0 -44.8141,11.945 -63.8184,34.17188 0,10e-4 0,0.003 0,0.004 0,0.005 -0.01,0.0102 -0.014,0.0156 -18.8473,21.86896 -33.7826,49.31719 -44.9238,82.18359 -11.1687,32.9478 -16.7402,68.0178 -16.7402,105.1055 0,21.3943 4.0851,40.0761 12.5058,55.7441 3e-4,5e-4 -2e-4,0 0,0 4e-4,7e-4 0,0 0,0 4.4345,8.2632 10.3611,14.9713 17.666,19.7715 7.9848,5.2473 18.7102,7.3203 32.1582,7.3203 14.3739,0 31.0767,-5.3573 50.7227,-15.4609 9.8719,-5.077 17.4576,-9.9364 22.9218,-14.9844 5.4643,-5.0479 9.1953,-10.6465 9.1953,-17.1191 0,-4.3614 -1.0795,-8.6954 -4.1093,-11.8984 -3.0299,-3.2031 -7.439,-4.4922 -11.7344,-4.4922 -4.8213,0 -9.1721,1.9146 -14.5195,4.8847 0,0 -0.01,0 -0.012,0.01 -4.9693,2.5777 -12.9916,6.813 -24.205,12.7812 -10.4215,5.4671 -20.0667,8.0332 -29.0801,8.0332 -7.7504,0 -12.179,-2.4776 -15.961,-8.7324 -3.7783,-6.249 -6.1986,-16.9665 -6.2031,-31.9902 l 0.9805,-36.0117 c 22.3369,-9.1067 42.3505,-18.7125 59.8789,-28.8789 18.9199,-10.9736 34.907,-25.1441 47.8008,-42.3926 13.4475,-17.7417 20.1347,-39.5077 20.1347,-64.48442 0,-13.81301 -3.6411,-26.25876 -10.9589,-36.65039 -7.3401,-10.86347 -18.6528,-16.92969 -31.6836,-16.92969 z m 503.1523,0 c -24.3051,0 -47.096,13.21602 -67.7012,37.79102 a 6.2737015,6.2737015 0 0 0 -0.018,0.0234 c -20.2512,24.3765 -36.5366,54.41815 -48.9511,89.99415 a 6.2737015,6.2737015 0 0 0 -0.01,0.027 c -12.2267,35.5686 -18.3907,70.0851 -18.3907,103.4883 0,18.6556 5.2473,35.8251 15.5997,50.8652 a 6.2737015,6.2737015 0 0 0 0.055,0.076 c 10.935,15.3902 27.7252,23.4218 48.0449,23.4218 20.266,0 38.799,-6.4791 54.7597,-19.1308 a 6.2737015,6.2737015 0 0 0 0.037,-0.029 c 15.7205,-12.6531 24.7618,-26.0896 24.7618,-40.4356 0,-4.3849 -1.4943,-8.9385 -4.877,-11.8984 -3.3827,-2.9599 -7.7733,-3.9453 -12.334,-3.9453 -5.7367,0 -10.9922,2.979 -15.2129,7.4219 -3.51,3.6947 -7.2823,7.8339 -11.3125,12.4121 -9.7785,10.7901 -19.2558,15.4414 -29.2597,15.4414 -10.6923,0 -17.3268,-3.1846 -22.2129,-9.8711 -4.8862,-6.6866 -7.8828,-17.7996 -7.8828,-33.625 0,-22.0325 4.928,-48.1157 14.9785,-78.0957 l 0,0 c 10.2339,-29.9826 22.6609,-55.3188 37.1875,-76.05281 l 0.01,-0.008 c 14.599,-20.57672 27.7704,-29.3418 38.6289,-29.3418 3.7969,0 5.9538,0.90642 7.7676,2.63868 1.8137,1.73226 3.4548,4.76377 4.3886,9.74414 a 6.2737015,6.2737015 0 0 0 0,0.0176 c 1.2227,6.41878 3.2644,11.78125 6.836,15.87304 3.5716,4.09179 8.91367,6.45508 14.36523,6.45508 5.42123,0 10.65172,-2.27986 14.68945,-6.08008 3.95495,-3.7223 6.62304,-8.61123 6.62305,-13.86718 0,-4.34404 -0.94593,-8.50565 -3.11915,-12.03711 a 6.2737015,6.2737015 0 0 0 -2.18164,-2.13086 c 0.0767,0.0448 -1.73134,-1.72612 -3.32031,-5.85743 l 0.0957,0.26758 c -1.6701,-5.0103 -3.16449,-9.13051 -4.52539,-12.43554 a 6.2737015,6.2737015 0 0 0 -0.0684,-0.15821 c -6.09499,-13.71375 -19.91334,-20.95508 -37.45314,-20.95508 z m 759.37892,4.10157 c -20.46151,0 -43.02088,15.69821 -70.45313,44.61328 -27.43483,28.73532 -51.28873,62.87952 -71.58008,102.35542 a 6.2737015,6.2737015 0 0 0 -0.004,0.01 c -20.13749,39.3513 -30.4961,72.9519 -30.4961,101.3008 0,14.2313 2.76192,25.7608 9.36328,34.0547 6.60137,8.2939 16.92607,12.416 28.9043,12.416 12.25337,0 23.84088,-4 34.07813,-11.6211 10.88473,-7.9623 27.57051,-26.3991 52.26562,-56.582 15.29837,-18.698 28.65999,-37.9275 40.50195,-57.5703 -6.62683,34.1611 -10.0664,59.9585 -10.0664,77.3886 2e-5,11.9802 4.15913,23.3484 11.99219,33.3907 a 6.2737015,6.2737015 0 0 0 0.0488,0.061 c 8.07251,10.0906 18.16824,16.0273 29.23438,16.0273 5.76905,0 11.42612,-2.3092 14.98828,-6.6933 a 6.2737015,6.2737015 0 0 0 0.11328,-0.1445 c 3.12696,-4.0891 4.8457,-9.0787 4.8457,-14.2012 0,-5.6158 -2.78884,-10.9964 -7.16992,-14.6524 -3.39251,-3.0065 -6.30201,-5.2867 -9.06836,-6.9004 l 0.32031,0.1993 c -1.09122,-0.7275 -1.90826,-1.2719 -2.86328,-1.9082 0.22353,-25.1743 3.02438,-55.3179 8.58789,-90.6114 5.81602,-36.8953 11.02198,-63.2489 15.41797,-78.5468 2.28142,-7.9393 3.99367,-13.96552 5.14258,-18.1016 0.57446,-2.06804 1.00576,-3.65908 1.30664,-4.81445 0.15044,-0.57769 0.2671,-1.0402 0.36133,-1.44727 0.0471,-0.20353 0.0891,-0.38855 0.13281,-0.61914 0.0437,-0.23059 0.13672,-0.23629 0.13672,-1.35937 l 0,-2.18946 c 0,-5.19358 -1.49751,-10.26419 -5.14844,-13.75976 -3.65093,-3.49558 -8.69161,-4.81836 -13.97656,-4.81836 -0.20079,0 -0.39486,0.0721 -0.5957,0.0781 -0.28657,-2.54842 -0.47864,-5.22164 -0.86524,-7.63867 l -0.002,-0.008 c -1.36914,-8.6256 -5.18817,-15.99184 -11.4707,-20.80664 -6.28451,-4.81632 -14.50211,-6.90039 -23.98242,-6.90039 z M -1529.6465,860.75 c 4.8589,0 7.2002,1.15525 8.9317,3.22266 1.7314,2.0674 3.1152,5.9623 3.1152,12.3789 0,18.31806 -4.3324,32.78324 -12.7168,44.12694 a 6.2737015,6.2737015 0 0 0 -0.01,0.012 c -8.4707,11.5203 -20.6571,21.8137 -36.8164,30.7715 -7.1771,3.947 -14.5373,7.7149 -22.0801,11.3067 -3.6837,1.7541 -7.1906,3.6912 -10.7929,5.5293 0.4049,-1.4781 0.6679,-2.6729 1.1718,-4.3399 a 6.2737015,6.2737015 0 0 0 0.01,-0.016 c 9.5106,-31.7619 21.4786,-57.0706 35.6524,-75.96876 14.3203,-19.09386 26.3649,-27.02344 33.539,-27.02344 z m 1029.00197,5.46875 c 2.91778,0 4.64917,0.64875 6.08203,1.78516 1.43286,1.1364 2.76573,3.02823 3.77539,6.3457 a 6.2737015,6.2737015 0 0 0 0.0117,0.0371 c 2.24705,7.22265 3.54687,17.92777 3.54687,31.77149 0,13.7381 -0.98334,26.7144 -2.93164,38.9356 -7.01404,43.8815 -19.38725,80.3843 -36.91992,109.6054 a 6.2737015,6.2737015 0 0 0 -0.004,0.01 c -12.82205,21.4286 -24.81668,30.3086 -35.0879,30.3086 -5.25566,0 -8.09307,-1.8252 -11.14257,-8.2969 -3.0495,-6.4717 -5.00586,-17.6441 -5.00586,-33.0117 0,-12.1243 1.3437,-31.8237 4.06836,-58.7071 a 6.2737015,6.2737015 0 0 0 0.002,0 c 2.60845,-25.9106 13.14192,-52.4162 32.00195,-79.6386 9.4911,-13.69946 18.00445,-23.82922 25.20899,-30.27543 7.20453,-6.44621 12.93062,-8.86133 16.39453,-8.86133 z m 240.91211,2.73437 c 1.30691,0 1.26082,-0.1269 2.25,1.55469 1.30529,2.219 1.86719,4.30068 1.86719,6.66407 0,2.80351 -0.46409,6.60107 -1.49024,11.21874 a 6.2737015,6.2737015 0 0 0 -0.0449,0.21876 c -0.049,0.26431 -2.47321,6.98301 -6.88477,16.30082 -4.40959,9.3136 -10.85788,22.1884 -19.31054,38.5488 -29.62176,56.8955 -63.00616,101.1622 -99.97657,132.9531 a 6.2737015,6.2737015 0 0 0 -0.3457,0.3203 c -1.6504,1.6504 -3.09642,2.2637 -5.68164,2.2637 -1.57803,0 -1.45837,-0.1772 -1.54883,-0.2852 -0.0905,-0.1079 -0.65429,-1.0618 -0.65429,-3.5586 0,-20.5695 6.49924,-45.3816 19.91992,-74.1914 13.45151,-28.8759 30.20877,-55.5759 50.29101,-80.1445 l 0.01,-0.012 c 0.003,0 0.005,-0.01 0.008,-0.01 20.34596,-24.6642 37.45156,-40.51049 50.09961,-47.41013 6.9e-4,-3.8e-4 0.001,-0.002 0.002,-0.002 5.97676,-3.24261 10.41645,-4.42969 11.49024,-4.42969 z"
           id="path4934"
           inkscape:connector-curvature="0" />
      </g>
    </g>
    <text
       sodipodi:linespacing="125%"
       id="text4907"
       y="266.25623"
       x="-1503.8108"
       style="font-style:normal;font-variant:normal;font-weight:normal;font-stretch:normal;font-size:560.03118896px;line-height:125%;font-family:'Bad Script';-inkscape-font-specification:'Bad Script';letter-spacing:0px;word-spacing:0px;fill:#000000;fill-opacity:1;stroke:none;stroke-width:1px;stroke-linecap:butt;stroke-linejoin:miter;stroke-opacity:1"
       xml:space="preserve"><tspan
         y="266.25623"
         x="-1503.8108"
         id="tspan4909"
         sodipodi:role="line">eScriba</tspan></text>
  </g>
</svg>
