<?xml version="1.0" encoding="UTF-8" standalone="no"?>
<!-- Created with Inkscape (http://www.inkscape.org/) -->

<svg
   xmlns:dc="http://purl.org/dc/elements/1.1/"
   xmlns:cc="http://creativecommons.org/ns#"
   xmlns:rdf="http://www.w3.org/1999/02/22-rdf-syntax-ns#"
   xmlns:svg="http://www.w3.org/2000/svg"
   xmlns="http://www.w3.org/2000/svg"
   xmlns:sodipodi="http://sodipodi.sourceforge.net/DTD/sodipodi-0.dtd"
   xmlns:inkscape="http://www.inkscape.org/namespaces/inkscape"
   sodipodi:docname="logo.svg"
   inkscape:version="0.91 r13725"
   version="1.1"
   id="svg2"
   viewBox="0 0 1970.3817 713.36039"
   height="201.32616mm"
   width="556.08551mm"
   inkscape:export-filename="/home/rthoth/workplace/escriba/logo.png"
   inkscape:export-xdpi="25.232687"
   inkscape:export-ydpi="25.232687">
  <sodipodi:namedview
     inkscape:object-paths="true"
     inkscape:snap-midpoints="false"
     inkscape:snap-nodes="true"
     inkscape:object-nodes="true"
     inkscape:snap-smooth-nodes="false"
     inkscape:window-maximized="1"
     inkscape:window-y="671"
     inkscape:window-x="0"
     inkscape:window-height="1016"
     inkscape:window-width="1920"
     inkscape:snap-global="false"
     inkscape:snap-center="true"
     inkscape:bbox-nodes="true"
     inkscape:snap-bbox="true"
     inkscape:guide-bbox="true"
     showguides="true"
     showgrid="false"
     inkscape:current-layer="layer1"
     inkscape:document-units="px"
     inkscape:cy="323.86128"
     inkscape:cx="711.14659"
     inkscape:zoom="0.70710678"
     inkscape:pageshadow="2"
     inkscape:pageopacity="0.0"
     borderopacity="1.0"
     bordercolor="#666666"
     pagecolor="#ffffff"
     id="base"
     fit-margin-top="0"
     fit-margin-left="0"
     fit-margin-right="0"
     fit-margin-bottom="0">
    <sodipodi:guide
       position="919.51676,-65.198886"
       orientation="0,1"
       id="guide10508" />
  </sodipodi:namedview>
  <defs
     id="defs4">
    <inkscape:path-effect
       effect="skeletal"
       id="path-effect4901"
       is_visible="true"
       pattern="M 0,5 C 0,2.24 2.24,0 5,0 7.76,0 10,2.24 10,5 10,7.76 7.76,10 5,10 2.24,10 0,7.76 0,5 Z"
       copytype="single_stretched"
       prop_scale="1"
       scale_y_rel="false"
       spacing="0"
       normal_offset="0"
       tang_offset="0"
       prop_units="false"
       vertical_pattern="false"
       fuse_tolerance="0" />
    <inkscape:path-effect
       effect="skeletal"
       id="path-effect4885"
       is_visible="true"
       pattern="M 0,5 C 0,2.24 2.24,0 5,0 7.76,0 10,2.24 10,5 10,7.76 7.76,10 5,10 2.24,10 0,7.76 0,5 Z"
       copytype="single_stretched"
       prop_scale="1"
       scale_y_rel="false"
       spacing="0"
       normal_offset="0"
       tang_offset="0"
       prop_units="false"
       vertical_pattern="false"
       fuse_tolerance="0" />
    <inkscape:path-effect
       effect="skeletal"
       id="path-effect4881"
       is_visible="true"
       pattern="M 0,5 C 0,2.24 2.24,0 5,0 7.76,0 10,2.24 10,5 10,7.76 7.76,10 5,10 2.24,10 0,7.76 0,5 Z"
       copytype="single_stretched"
       prop_scale="1"
       scale_y_rel="false"
       spacing="0"
       normal_offset="0"
       tang_offset="0"
       prop_units="false"
       vertical_pattern="false"
       fuse_tolerance="0" />
    <inkscape:path-effect
       effect="skeletal"
       id="path-effect4875"
       is_visible="true"
       pattern="M 0,5 C 0,2.24 2.24,0 5,0 7.76,0 10,2.24 10,5 10,7.76 7.76,10 5,10 2.24,10 0,7.76 0,5 Z"
       copytype="single_stretched"
       prop_scale="1"
       scale_y_rel="false"
       spacing="0"
       normal_offset="0"
       tang_offset="0"
       prop_units="false"
       vertical_pattern="false"
       fuse_tolerance="0" />
    <inkscape:path-effect
       effect="skeletal"
       id="path-effect4871"
       is_visible="true"
       pattern="M 0,5 C 0,2.24 2.24,0 5,0 7.76,0 10,2.24 10,5 10,7.76 7.76,10 5,10 2.24,10 0,7.76 0,5 Z"
       copytype="single_stretched"
       prop_scale="1"
       scale_y_rel="false"
       spacing="0"
       normal_offset="0"
       tang_offset="0"
       prop_units="false"
       vertical_pattern="false"
       fuse_tolerance="0" />
    <inkscape:path-effect
       effect="skeletal"
       id="path-effect4867"
       is_visible="true"
       pattern="M 0,5 C 0,2.24 2.24,0 5,0 7.76,0 10,2.24 10,5 10,7.76 7.76,10 5,10 2.24,10 0,7.76 0,5 Z"
       copytype="single_stretched"
       prop_scale="1"
       scale_y_rel="false"
       spacing="0"
       normal_offset="0"
       tang_offset="0"
       prop_units="false"
       vertical_pattern="false"
       fuse_tolerance="0" />
    <inkscape:path-effect
       effect="skeletal"
       id="path-effect4863"
       is_visible="true"
       pattern="M 0,5 C 0,2.24 2.24,0 5,0 7.76,0 10,2.24 10,5 10,7.76 7.76,10 5,10 2.24,10 0,7.76 0,5 Z"
       copytype="single_stretched"
       prop_scale="2"
       scale_y_rel="false"
       spacing="0"
       normal_offset="0"
       tang_offset="0"
       prop_units="false"
       vertical_pattern="false"
       fuse_tolerance="0" />
    <inkscape:path-effect
       effect="skeletal"
       id="path-effect4859"
       is_visible="true"
       pattern="M 0,5 C 0,2.24 2.24,0 5,0 7.76,0 10,2.24 10,5 10,7.76 7.76,10 5,10 2.24,10 0,7.76 0,5 Z"
       copytype="single_stretched"
       prop_scale="1"
       scale_y_rel="false"
       spacing="0"
       normal_offset="0"
       tang_offset="0"
       prop_units="false"
       vertical_pattern="false"
       fuse_tolerance="0" />
    <inkscape:path-effect
       pattern-nodetypes="cscc"
       fuse_tolerance="0"
       vertical_pattern="false"
       prop_units="false"
       tang_offset="0"
       normal_offset="0"
       spacing="0"
       scale_y_rel="false"
       prop_scale="1"
       copytype="single_stretched"
       pattern="m -958.72588,758.45781 c 8.26,0.5 7.37868,6.62909 7.37868,9.38909 0,2.76 -3.24,5 -6,5 -16.49452,-1.5747 -12.30619,-14.57668 -1.37868,-14.38909 z"
       is_visible="true"
       id="path-effect12444"
       effect="skeletal" />
    <inkscape:path-effect
       pattern-nodetypes="sccs"
       effect="skeletal"
       id="path-effect12440"
       is_visible="true"
       pattern="m -908.99565,951.08958 c 0,-2.76 14.96792,-5.00001 17.72792,-5.00001 15.47371,-6.39141 16.40102,18.97212 10.60661,20.25305 -2.76,0 -28.33453,-12.49304 -28.33453,-15.25304 z"
       copytype="single_stretched"
       prop_scale="1"
       scale_y_rel="false"
       spacing="0"
       normal_offset="0"
       tang_offset="0"
       prop_units="false"
       vertical_pattern="false"
       fuse_tolerance="0" />
    <inkscape:path-effect
       fuse_tolerance="0"
       vertical_pattern="false"
       prop_units="false"
       tang_offset="0"
       normal_offset="0"
       spacing="0"
       scale_y_rel="false"
       prop_scale="1"
       copytype="single_stretched"
       pattern="m -1216.9516,196.30361 c 0,-2.76 2.24,-5 5,-5 2.76,0 5,2.24 5,5 0,2.76 -2.24,5 -5,5 -2.76,0 -5,-2.24 -5,-5 z"
       is_visible="true"
       id="path-effect12436"
       effect="skeletal" />
    <inkscape:path-effect
       effect="skeletal"
       id="path-effect12432"
       is_visible="true"
       pattern="m -1037.284,757.00271 c 0,11.59798 -55.1522,4.73655 -63,4.73655 -7.8478,0 -63,6.86143 -63,-4.73655 0,-11.59798 55.1522,-4.73654 63,-4.73654 7.8478,0 63,-6.86144 63,4.73654 z"
       copytype="single_stretched"
       prop_scale="0.91"
       scale_y_rel="false"
       spacing="0"
       normal_offset="0"
       tang_offset="0"
       prop_units="false"
       vertical_pattern="false"
       fuse_tolerance="0"
       pattern-nodetypes="sssss" />
    <inkscape:path-effect
       fuse_tolerance="0"
       vertical_pattern="false"
       prop_units="false"
       tang_offset="0"
       normal_offset="0"
       spacing="0"
       scale_y_rel="false"
       prop_scale="1"
       copytype="single_stretched"
       pattern="m -921.41325,878.34302 c 0,-5.2971 4.29909,-9.59619 9.59619,-9.59619 5.2971,0 9.59619,4.29909 9.59619,9.59619 0,5.2971 -4.29909,9.59619 -9.59619,9.59619 -5.2971,0 -9.59619,-4.29909 -9.59619,-9.59619 z"
       is_visible="true"
       id="path-effect12428"
       effect="skeletal"
       pattern-nodetypes="sssss" />
    <inkscape:path-effect
       pattern-nodetypes="sssss"
       fuse_tolerance="0"
       vertical_pattern="false"
       prop_units="false"
       tang_offset="0"
       normal_offset="0"
       spacing="0"
       scale_y_rel="false"
       prop_scale="0.91"
       copytype="single_stretched"
       pattern="m -925.48754,600.09383 c -3.58654,30.99251 -17.22895,11.85179 -25.41123,11.85179 -8.1823,0 -49.17303,2.25429 -49.17303,-9.83808 0,-12.09237 36.96331,-3.39419 45.1456,-3.39419 8.18228,0 30.82874,-10.63173 29.43866,1.38048 z"
       is_visible="true"
       id="path-effect12424"
       effect="skeletal" />
    <inkscape:path-effect
       effect="skeletal"
       id="path-effect12406"
       is_visible="true"
       pattern="m -267.17545,758.45781 c 8.26,0.5 7.37868,6.62909 7.37868,9.38909 0,2.76 -3.24,5 -6,5 -16.49452,-1.5747 -12.30619,-14.57668 -1.37868,-14.38909 z"
       copytype="single_stretched"
       prop_scale="1"
       scale_y_rel="false"
       spacing="0"
       normal_offset="0"
       tang_offset="0"
       prop_units="false"
       vertical_pattern="false"
       fuse_tolerance="0"
       pattern-nodetypes="cscc" />
    <inkscape:path-effect
       fuse_tolerance="0"
       vertical_pattern="false"
       prop_units="false"
       tang_offset="0"
       normal_offset="0"
       spacing="0"
       scale_y_rel="false"
       prop_scale="1"
       copytype="single_stretched"
       pattern="m -225.44522,956.08958 c 0,-2.76 14.96792,-5.00001 17.72792,-5.00001 15.47371,-6.39141 16.40102,18.97212 10.60661,20.25305 -2.76,0 -28.33453,-12.49304 -28.33453,-15.25304 z"
       is_visible="true"
       id="path-effect12402"
       effect="skeletal"
       pattern-nodetypes="sccs" />
    <inkscape:path-effect
       fuse_tolerance="0"
       vertical_pattern="false"
       prop_units="false"
       tang_offset="0"
       normal_offset="0"
       spacing="0"
       scale_y_rel="false"
       prop_scale="1"
       copytype="single_stretched"
       pattern="m -8,25 c 0,-2.76 2.24,-5 5,-5 2.76,0 5,2.24 5,5 0,2.76 -2.24,5 -5,5 -2.76,0 -5,-2.24 -5,-5 z"
       is_visible="true"
       id="path-effect12398"
       effect="skeletal" />
    <inkscape:path-effect
       effect="skeletal"
       id="path-effect12394"
       is_visible="true"
       pattern="M 0,5 C 0,2.24 2.24,0 5,0 7.76,0 10,2.24 10,5 10,7.76 7.76,10 5,10 2.24,10 0,7.76 0,5 Z"
       copytype="single_stretched"
       prop_scale="1"
       scale_y_rel="false"
       spacing="0"
       normal_offset="0"
       tang_offset="0"
       prop_units="false"
       vertical_pattern="false"
       fuse_tolerance="0" />
    <inkscape:path-effect
       effect="skeletal"
       id="path-effect12390"
       is_visible="true"
       pattern="m -533.40115,200.30361 c 0,-2.76 2.24,-5 5,-5 2.76,0 5,2.24 5,5 0,2.76 -2.24,5 -5,5 -2.76,0 -5,-2.24 -5,-5 z"
       copytype="single_stretched"
       prop_scale="1"
       scale_y_rel="false"
       spacing="0"
       normal_offset="0"
       tang_offset="0"
       prop_units="false"
       vertical_pattern="false"
       fuse_tolerance="0" />
    <inkscape:path-effect
       pattern-nodetypes="sssss"
       fuse_tolerance="0"
       vertical_pattern="false"
       prop_units="false"
       tang_offset="0"
       normal_offset="0"
       spacing="0"
       scale_y_rel="false"
       prop_scale="0.91"
       copytype="single_stretched"
       pattern="m -345.73357,757.00271 c 0,11.59798 -55.15224,4.73655 -63,4.73655 -7.84776,0 -63,6.86143 -63,-4.73655 0,-11.59798 55.15224,-4.73654 63,-4.73654 7.84776,0 63,-6.86144 63,4.73654 z"
       is_visible="true"
       id="path-effect12382"
       effect="skeletal" />
    <inkscape:path-effect
       effect="skeletal"
       id="path-effect12378"
       is_visible="true"
       pattern="m -555.78593,157.73506 c 0,-2.76 2.24,-5 5,-5 2.76,0 5,2.24 5,5 0,2.76 -2.24,5 -5,5 -2.76,0 -5,-2.24 -5,-5 z"
       copytype="single_stretched"
       prop_scale="1"
       scale_y_rel="false"
       spacing="0"
       normal_offset="0"
       tang_offset="0"
       prop_units="false"
       vertical_pattern="false"
       fuse_tolerance="0" />
    <inkscape:path-effect
       effect="skeletal"
       id="path-effect12374"
       is_visible="true"
       pattern="m 395.75,592.75 c 0,-2.76 2.24,-5 5,-5 2.76,0 5,2.24 5,5 0,2.76 -2.24,5 -5,5 -2.76,0 -5,-2.24 -5,-5 z"
       copytype="single_stretched"
       prop_scale="1"
       scale_y_rel="false"
       spacing="0"
       normal_offset="0"
       tang_offset="0"
       prop_units="false"
       vertical_pattern="false"
       fuse_tolerance="0"
       pattern-nodetypes="sssss" />
    <inkscape:path-effect
       effect="skeletal"
       id="path-effect12349"
       is_visible="true"
       pattern="m -196.562,612.99052 c 0,11.59798 -55.15224,4.73655 -63,4.73655 -7.84776,0 -63,6.86143 -63,-4.73655 0,-11.59798 55.15224,-4.73654 63,-4.73654 7.84776,0 63,-6.86144 63,4.73654 z"
       copytype="single_stretched"
       prop_scale="0.91"
       scale_y_rel="false"
       spacing="0"
       normal_offset="0"
       tang_offset="0"
       prop_units="false"
       vertical_pattern="false"
       fuse_tolerance="0"
       pattern-nodetypes="sssss" />
    <inkscape:perspective
       sodipodi:type="inkscape:persp3d"
       inkscape:vp_x="-102.65959 : -1.2572173e-14 : 0"
       inkscape:vp_y="6.1232339e-14 : 999.99995 : 0"
       inkscape:vp_z="-346.76815 : -181.286 : 0"
       inkscape:persp3d-origin="160.94616 : 573.75187 : 1"
       id="perspective4327" />
    <clipPath
       clipPathUnits="userSpaceOnUse"
       id="clipPath4917">
      <g
         id="g4919"
         transform="translate(9.9960538,1.1960863)"
         style="fill:#212800;fill-opacity:1">
        <path
           d="m 68.333982,736.38045 c -31.95597,0 -48.939562,25.25192 -48.939562,57.8783 0,35.08452 19.218275,54.74974 54.302802,54.74974 11.620353,0 23.240706,-2.01122 34.861058,-6.03365 l -3.35202,-13.4081 c -8.268332,2.90509 -17.207065,4.2459 -26.369267,4.2459 -24.804983,0 -40.894703,-13.63157 -40.894703,-35.75493 l 73.96802,0 1.11734,-2.45815 0,-9.83261 c 0,-30.16822 -14.972381,-49.3865 -44.693668,-49.3865 z m 26.145794,46.92835 -56.090549,0 c 2.234683,-18.3244 11.843821,-32.40291 31.95597,-32.40291 16.983593,0 24.134579,14.97238 24.134579,32.40291 z"
           style="font-style:normal;font-variant:normal;font-weight:normal;font-stretch:normal;font-size:medium;line-height:125%;font-family:Cantarell;-inkscape-font-specification:Cantarell;letter-spacing:0px;word-spacing:0px;fill:#212800;fill-opacity:1;stroke:none;stroke-width:1px;stroke-linecap:butt;stroke-linejoin:miter;stroke-opacity:1"
           id="path4921"
           inkscape:connector-curvature="0" />
        <path
           d="m 198.55316,714.25709 c 15.86625,0 26.36926,3.57549 39.10696,8.49179 l 9.1622,-24.35804 -3.12856,-1.11734 c -14.0785,-5.13978 -26.36926,-8.26833 -46.03447,-8.26833 -31.0621,0 -58.32523,14.0785 -58.32523,44.02326 0,31.06209 24.80498,39.55389 49.16303,46.92835 12.73769,3.79896 35.9784,10.72647 35.9784,23.2407 0,15.19585 -18.77134,20.55909 -35.308,20.55909 -11.17341,0 -25.25192,-3.12856 -42.45898,-9.60914 l -4.2459,-1.78775 -9.38567,23.91111 3.5755,1.78775 c 17.43053,6.70405 28.82741,10.94995 50.28037,10.94995 35.08453,0 65.02928,-13.18463 65.02928,-45.81101 0,-30.83863 -25.25192,-39.33042 -49.60997,-46.92835 -11.84382,-3.57549 -35.53146,-11.17341 -35.53146,-22.12336 0,-14.74891 15.64278,-19.88868 31.7325,-19.88868 z"
           style="font-style:normal;font-variant:normal;font-weight:bold;font-stretch:normal;font-size:medium;line-height:125%;font-family:Cantarell;-inkscape-font-specification:'Cantarell Bold';letter-spacing:0px;word-spacing:0px;fill:#212800;fill-opacity:1;stroke:none;stroke-width:1px;stroke-linecap:butt;stroke-linejoin:miter;stroke-opacity:1"
           id="path4923"
           inkscape:connector-curvature="0" />
        <path
           d="m 325.28065,849.00849 c 9.83261,0 20.33562,-2.01122 31.28556,-6.25712 l -4.24589,-12.73769 c -6.70405,2.45815 -13.63157,3.79896 -20.78256,3.79896 -26.59273,0 -40.44776,-14.0785 -40.44776,-43.12939 0,-25.25192 12.96116,-38.88348 38.88348,-38.88348 8.26833,0 15.64279,1.34081 22.34684,4.24589 l 4.46936,-13.63156 c -9.1622,-4.02243 -18.54787,-6.03365 -27.71007,-6.03365 -36.42534,0 -56.53749,23.46418 -56.53749,57.65483 0,34.19065 18.77134,54.97321 52.73853,54.97321 z"
           style="font-style:normal;font-variant:normal;font-weight:normal;font-stretch:normal;font-size:medium;line-height:125%;font-family:Cantarell;-inkscape-font-specification:Cantarell;letter-spacing:0px;word-spacing:0px;fill:#212800;fill-opacity:1;stroke:none;stroke-width:1px;stroke-linecap:butt;stroke-linejoin:miter;stroke-opacity:1"
           id="path4925"
           inkscape:connector-curvature="0" />
        <path
           d="m 426.52927,736.38045 c -10.50301,0 -20.33562,3.5755 -29.72129,10.72648 l -4.02243,-8.26833 -13.4081,0 0,107.9352 18.54787,0 0,-86.25877 c 7.82139,-5.36324 15.41932,-8.04486 23.46418,-8.04486 5.81017,0 11.17341,1.34081 16.08972,3.57549 l 6.70405,-16.53665 c -5.36324,-2.45815 -9.60914,-3.12856 -17.654,-3.12856 z"
           style="font-style:normal;font-variant:normal;font-weight:normal;font-stretch:normal;font-size:medium;line-height:125%;font-family:Cantarell;-inkscape-font-specification:Cantarell;letter-spacing:0px;word-spacing:0px;fill:#212800;fill-opacity:1;stroke:none;stroke-width:1px;stroke-linecap:butt;stroke-linejoin:miter;stroke-opacity:1"
           id="path4927"
           inkscape:connector-curvature="0" />
        <path
           d="m 470.58396,721.63154 c 6.70405,0 12.06729,-5.36324 12.06729,-12.06729 0,-6.70405 -5.36324,-12.06729 -12.06729,-12.06729 -6.70405,0 -12.06729,5.36324 -12.06729,12.06729 0,6.70405 5.36324,12.06729 12.06729,12.06729 z m -8.93873,17.43053 0,107.71173 17.87746,0 0,-107.71173 -17.87746,0 z"
           style="font-style:normal;font-variant:normal;font-weight:normal;font-stretch:normal;font-size:medium;line-height:125%;font-family:Cantarell;-inkscape-font-specification:Cantarell;letter-spacing:0px;word-spacing:0px;fill:#212800;fill-opacity:1;stroke:none;stroke-width:1px;stroke-linecap:butt;stroke-linejoin:miter;stroke-opacity:1"
           id="path4929"
           inkscape:connector-curvature="0" />
        <path
           d="m 609.06798,793.36487 c 0,-35.08452 -18.10093,-56.98442 -52.51506,-56.98442 -10.27954,0 -18.9948,1.78775 -26.36926,5.13977 l 0,-55.19667 -18.3244,0 0,160.45025 12.96116,0 3.35203,-7.59792 c 10.05607,6.70405 20.55908,9.83261 31.06209,9.83261 32.62638,0 49.83344,-22.79377 49.83344,-55.64362 z m -54.52627,40.00083 c -11.17342,0 -16.31319,-2.23468 -24.35805,-6.48058 l 0,-71.06292 c 7.15099,-2.90509 15.19585,-4.46937 24.13458,-4.46937 24.13458,0 35.53146,16.98359 35.53146,40.8947 0,26.8162 -9.60913,41.11817 -35.30799,41.11817 z"
           style="font-style:normal;font-variant:normal;font-weight:normal;font-stretch:normal;font-size:medium;line-height:125%;font-family:Cantarell;-inkscape-font-specification:Cantarell;letter-spacing:0px;word-spacing:0px;fill:#212800;fill-opacity:1;stroke:none;stroke-width:1px;stroke-linecap:butt;stroke-linejoin:miter;stroke-opacity:1"
           id="path4931"
           inkscape:connector-curvature="0" />
        <path
           d="m 670.02594,752.02323 c 21.89989,0 27.26313,9.38567 27.26313,31.28557 -34.86105,0.67041 -67.7109,3.79896 -67.7109,35.53146 0,18.10094 16.31319,30.16823 34.86106,30.16823 11.39689,0 22.5703,-4.2459 33.29678,-12.51423 l 4.02243,10.27954 13.85504,0 0,-70.61599 c 0,-28.60394 -13.4081,-39.77736 -43.12939,-39.77736 -10.94995,0 -22.79377,2.23469 -35.53146,6.48058 l 3.79896,13.63157 c 7.15099,-2.23468 20.33562,-4.46937 29.27435,-4.46937 z m -2.90509,82.23635 c -10.72648,0 -19.66521,-6.70405 -19.66521,-17.43053 0,-18.3244 25.92232,-18.77134 49.83343,-18.77134 l 0,24.35805 c -7.82139,6.70405 -16.31318,11.84382 -30.16822,11.84382 z"
           style="font-style:normal;font-variant:normal;font-weight:normal;font-stretch:normal;font-size:medium;line-height:125%;font-family:Cantarell;-inkscape-font-specification:Cantarell;letter-spacing:0px;word-spacing:0px;fill:#212800;fill-opacity:1;stroke:none;stroke-width:1px;stroke-linecap:butt;stroke-linejoin:miter;stroke-opacity:1"
           id="path4933"
           inkscape:connector-curvature="0" />
      </g>
    </clipPath>
  </defs>
  <metadata
     id="metadata7">
    <rdf:RDF>
      <cc:Work
         rdf:about="">
        <dc:format>image/svg+xml</dc:format>
        <dc:type
           rdf:resource="http://purl.org/dc/dcmitype/StillImage" />
        <dc:title></dc:title>
      </cc:Work>
    </rdf:RDF>
  </metadata>
  <g
     inkscape:label="Layer 1"
     inkscape:groupmode="layer"
     id="layer1"
     transform="translate(641.54982,-415.36892)">
    <g
       id="g4390">
      <path
         sodipodi:nodetypes="cccccccccccccccscc"
         inkscape:connector-curvature="0"
         id="path4899"
         d="m 765.27959,1060.0941 c 41.21492,-77.93747 203.85152,-305.08683 285.08351,-414.16282 -70.46641,68.13706 -113.62225,125.08211 -190.76551,243.5235 -11.73951,-43.59073 -53.94194,-85.89346 -32.47598,-129.48423 14.82861,-32.16969 84.20705,-99.54296 166.97757,-167.09648 7.14972,-5.83528 12.43842,16.76111 12.89842,44.28097 7.4527,-29.44913 23.8054,-73.58299 31.3822,-79.43359 128.2474,-99.02923 225.163,-131.99804 290.4521,-142.35253 -34.0451,27.65803 -61.9274,54.21873 -85.0045,79.70199 -8.7309,-0.0321 -51.6654,27.30112 -67.3243,41.28613 18.2427,-4.97504 20.8679,-1.5737 33.0058,0.28972 -31.449,42.09631 -50.7352,80.98957 -64.925,116.78332 -2.0102,5.0707 -62.745,14.001 -93.494,32.18364 30.1674,-7.79962 83.4932,-5.39341 81.5072,0.356 -36.2246,104.86594 -43.3091,176.17517 -233.69657,225.31903 -23.20504,18.29503 -81.35185,87.73912 -97.1994,128.55275 -6.94547,17.8873 -24.82744,59.333 -46.52504,88.8878 z"
         style="opacity:0.98999999;fill:#950058;fill-opacity:1;fill-rule:evenodd;stroke:none;stroke-width:10;stroke-linecap:round;stroke-linejoin:round;stroke-miterlimit:4;stroke-dasharray:none;stroke-opacity:1" />
      <path
         inkscape:connector-curvature="0"
         id="path4934"
         d="m -269.07515,513.13186 c -26.38636,0 -47.3102,10.19917 -60.39218,29.99671 0,0.004 -0.009,0.006 -0.009,0.009 -12.75132,19.1372 -19.06545,42.09529 -19.06545,68.32165 0,27.27996 14.28007,72.11867 42.22139,137.09061 27.70706,64.4271 41.28185,111.52049 41.28185,139.57319 0,28.62471 -7.72644,52.31486 -23.15769,71.88222 a 5.7703612,5.7703612 0 0 0 -0.009,0.011 c -18.01351,22.95525 -40.73661,34.00996 -69.90784,34.00996 -29.67159,0 -53.19967,-6.48971 -71.13307,-19.07446 a 5.7703612,5.7703612 0 0 0 -0.0396,-0.0267 c -9.06184,-6.24956 -16.23191,-13.96431 -21.68283,-23.30862 -5.16561,-8.85545 -8.01561,-21.24052 -8.01561,-37.33511 0,-15.69412 4.30323,-32.19663 13.1803,-49.64421 4.95222,-9.28415 15.90282,-22.1407 32.74711,-37.66384 a 5.7703612,5.7703612 0 0 0 0.94304,-1.12276 c 2.08347,-3.2409 3.17974,-7.04838 3.17974,-10.91687 0,-3.93206 -1.48,-8.09121 -4.61329,-10.67615 -3.13319,-2.58495 -7.07009,-3.39345 -11.21687,-3.39345 -4.83422,0 -9.2893,2.24619 -13.29352,5.64975 a 5.7703612,5.7703612 0 0 0 -0.0883,0.0754 c -10.41115,9.21639 -19.25649,18.22315 -26.53499,27.06131 -20.27513,24.64486 -30.49065,54.24342 -30.49065,87.92245 0,34.03599 13.87445,61.33209 40.74111,79.71457 a 5.7703612,5.7703612 0 0 0 0.0147,0.01 c 26.66468,18.1251 58.29142,27.1549 94.29259,27.1549 47.12901,0 83.08189,-17.3702 105.41068,-51.62212 l 0.011,-0.0166 c 17.18204,-25.86659 25.85409,-54.60222 25.85409,-85.67333 0,-31.09954 -7.40737,-65.7148 -22.00973,-103.91962 l 0,-0.004 c -6.24293,-16.36633 -12.99037,-32.64545 -20.24395,-48.83941 l 0.0221,0.0467 c -7.00865,-16.01993 -13.60073,-32.03899 -19.77331,-48.05439 -6.12438,-15.89032 -11.25099,-31.76667 -15.38453,-47.63401 -3.91684,-15.67361 -5.85994,-30.86969 -5.85994,-45.61483 0,-14.22262 3.72994,-26.10285 11.21144,-36.3327 7.15636,-9.78523 17.05851,-14.48818 31.81291,-14.48817 14.83441,0 26.27497,4.62088 35.62673,14.12349 9.58483,9.73946 15.3459,21.30691 17.52594,35.32132 a 5.7703612,5.7703612 0 0 0 0,0.0126 c 0.62241,3.94175 1.97272,7.54653 4.64741,10.29352 2.67469,2.74698 6.58058,4.13357 10.35817,4.13357 4.70186,0 9.1152,-2.19355 12.69531,-5.54197 3.78651,-3.39 6.40426,-7.88972 6.40426,-12.80313 0,-3.9955 -0.8701,-7.82324 -2.86885,-11.07137 l 0.61615,1.37247 c -6.68939,-22.41393 -17.08187,-39.7691 -31.43203,-51.48555 -14.35024,-11.71645 -32.49951,-17.52412 -53.57484,-17.52412 z m 660.72528,3.52099 c -6.66825,0 -12.08365,4.91126 -15.44028,11.42706 a 5.7703612,5.7703612 0 0 0 -0.55509,1.64912 c -7.2021,41.20266 -14.15172,78.03731 -20.84393,110.49453 -6.7057,32.35493 -11.3992,54.90649 -14.07858,67.63362 a 5.7703612,5.7703612 0 0 0 -0.0108,0.0575 c -2.52,12.59995 -5.04023,25.61712 -7.55936,39.05249 -2.51853,13.43219 -5.20586,28.11818 -8.05877,44.06092 a 5.7703612,5.7703612 0 0 0 -0.007,0.0485 c -2.68753,15.78918 -5.54245,33.24997 -8.56357,52.38385 -3.01844,19.11677 -5.86785,37.22787 -8.55099,54.33282 a 5.7703612,5.7703612 0 0 0 -0.009,0.0561 c -2.55858,17.39827 -3.83358,35.45207 -3.83358,54.15862 0,19.24848 4.05575,36.55073 12.27857,51.56635 8.5084,15.537 22.79239,24.1242 40.27226,24.1242 24.29125,0 45.54664,-16.0339 63.03836,-45.29142 l 0.006,-0.011 c 13.99593,-23.15686 24.8121,-51.98014 32.62489,-86.45836 7.9462,-34.49477 11.96419,-64.38517 11.96419,-89.80689 0,-12.61794 -4.07073,-24.7765 -11.84383,-35.9842 -8.17685,-11.78989 -20.87439,-18.07744 -35.92851,-18.07744 -15.8138,0 -31.23077,9.09118 -46.25975,25.51823 -3.04669,3.33009 -6.32783,7.67754 -9.75459,12.58037 6.2933,-29.86223 12.56018,-59.62696 20.14691,-94.20276 l 0.004,-0.0198 c 10.40633,-46.66318 20.0463,-99.14135 28.93143,-157.43333 l 0.91078,-3.18686 a 5.7703612,5.7703612 0 0 0 0.22276,-1.58445 c 0,-4.90555 -1.70082,-9.77325 -5.36951,-12.88755 -3.6687,-3.1143 -8.47213,-4.20004 -13.73188,-4.20004 z M 257.34217,665.04477 c -7.53308,0 -14.69645,3.09403 -20.71817,8.53302 -6.0087,5.4272 -9.70068,12.14111 -9.70069,19.37086 0,6.43989 2.31491,12.50066 6.72222,16.90795 4.03337,4.03339 8.86321,6.72043 14.13967,6.72043 3.64194,0 7.07612,-0.27221 10.30788,-0.84252 a 5.7703612,5.7703612 0 0 0 0.0377,-0.007 c 6.34197,-1.16269 11.86719,-4.75912 15.18518,-10.12285 3.318,-5.36372 4.63658,-12.06821 4.63658,-19.9493 0,-5.90826 -1.56678,-11.37706 -5.40006,-15.21034 -3.83328,-3.83328 -9.30208,-5.40005 -15.21033,-5.40005 z m -24.64875,78.72475 c -5.68634,0 -11.06738,2.8514 -14.75224,7.37613 -3.5877,4.24728 -5.60485,9.51861 -5.60485,14.99297 a 5.7703612,5.7703612 0 0 0 0.21018,1.54491 c 2.48068,8.93044 3.56232,15.27167 3.56232,15.55885 l 0,5.02999 c 0,-0.84999 -0.0806,0.62246 -0.37905,2.27428 -0.29849,1.65181 -0.7623,3.99689 -1.38504,6.98629 -1.2455,5.97881 -3.12761,14.55329 -5.63898,25.6871 a 5.7703612,5.7703612 0 0 0 -0.007,0.0322 c -4.86086,22.12524 -9.05184,40.97997 -12.56958,56.55857 a 5.7703612,5.7703612 0 0 0 -0.0126,0.057 c -3.34818,15.56904 -6.69503,30.63146 -10.04202,45.19087 a 5.7703612,5.7703612 0 0 0 -0.0143,0.0625 c -3.18647,14.59077 -5.70239,26.1635 -7.54858,34.72315 a 5.7703612,5.7703612 0 0 0 -0.0162,0.0846 c -1.64632,8.23166 -3.29027,14.66472 -4.82699,19.12109 a 5.7703612,5.7703612 0 0 0 -0.0396,0.11498 c -1.64988,5.13305 -2.54014,9.98336 -2.54014,14.59242 0,9.9907 1.42764,18.0243 5.27789,24.1853 3.85027,6.1609 10.68991,9.7545 18.09719,9.7545 6.82388,0 14.50959,-3.052 25.21643,-8.4054 5.6529,-2.8265 10.18202,-5.9824 13.48756,-9.8211 3.30554,-3.8387 5.29586,-8.5568 5.29586,-13.44809 0,-4.27656 -0.76982,-8.25788 -3.30722,-11.48811 -2.53739,-3.23023 -6.77141,-4.84673 -10.76238,-4.84673 -5.79142,0 -10.06636,3.53799 -14.55104,8.39649 l 0.0773,-0.0828 c -1.67011,1.73974 -3.14185,2.77237 -4.17131,3.44555 0.0327,-0.23712 0.011,-0.10973 0.0557,-0.37545 0.22986,-1.36687 0.59024,-3.29287 1.07606,-5.72695 0.97164,-4.86825 2.44444,-11.78712 4.41022,-20.71643 3.93156,-17.85853 9.83998,-43.77378 17.71815,-77.71696 7.88512,-33.97317 13.79994,-60.23509 17.75407,-78.82711 1.97706,-9.29602 3.46334,-16.67013 4.46592,-22.17329 1.00256,-5.50314 1.57186,-8.69936 1.57186,-11.47196 0,-7.03555 -1.55505,-13.72026 -4.66711,-19.74991 -3.24493,-6.28704 -8.86394,-10.92047 -15.44028,-10.92047 z m -171.280179,2.515 c -3.103459,0 -6.16977,0.9706 -8.798886,2.62457 -7.734923,4.47808 -12.061208,12.80228 -12.061208,22.26131 l 0,2.51499 c 0,0.83156 0.103263,1.61154 0.271268,2.35512 -8.278499,28.85603 -13.927173,51.34838 -16.782212,67.30308 a 5.7703612,5.7703612 0 0 0 -0.0074,0.0488 c -2.684302,15.77028 -5.117066,30.28296 -7.298879,43.54181 -2.160954,12.96489 -6.266733,35.16749 -12.2983254,66.49825 a 5.7703612,5.7703612 0 0 0 -0.00368,0.0211 L -7.134756,1014.8232 a 5.7703612,5.7703612 0 0 0 -0.1006044,1.0688 c 0,3.8556 0.6844191,7.517 3.0521274,10.5378 2.3677174,3.0209 6.3534847,4.5378 10.0114828,4.5378 7.6949962,0 14.1804862,-5.3129 18.5912062,-13.0312 4.410719,-7.7184 7.639166,-18.32604 10.219866,-32.17584 0.849223,-4.41756 1.858487,-10.04876 3.034164,-16.93489 a 5.7703612,5.7703612 0 0 0 0.0037,-0.023 c 1.066372,-6.39819 4.387284,-19.16377 9.894709,-37.52191 l 0,0.009 C 68.179638,862.81907 94.355561,817.76893 124.66907,795.70832 a 5.7703612,5.7703612 0 0 0 0.0665,-0.0503 c 7.71,-5.78249 13.60103,-7.89888 14.14326,-7.89888 2.72738,0 4.92778,0.62177 7.05277,1.92038 a 5.7703612,5.7703612 0 0 0 0.20659,0.12036 c 3.77139,2.09521 7.90998,3.24075 12.1079,3.24075 4.80516,0 9.36759,-2.12847 13.13906,-5.4809 3.91023,-3.47575 6.46354,-8.28304 6.46354,-13.3672 0,-4.67086 -1.91978,-9.28254 -5.31024,-12.46539 -7.48561,-7.59143 -18.29186,-11.16299 -31.14283,-11.16299 -13.4136,0 -26.42928,5.93273 -38.56387,16.81813 -11.549619,10.3435 -21.265046,21.34895 -29.103885,33.0201 a 5.7703612,5.7703612 0 0 0 -0.03412,0.0503 c -2.278389,3.46936 -3.158278,4.99655 -5.073101,7.95996 0.640353,-2.14997 1.137038,-4.15154 1.821577,-6.34677 a 5.7703612,5.7703612 0 0 0 0.0055,-0.0162 c 4.923785,-15.95987 7.550371,-26.81259 7.550371,-34.39795 0,-5.86477 -0.903958,-10.90495 -3.732968,-14.98398 -2.82901,-4.07904 -7.860298,-6.37911 -12.851631,-6.37911 z m -587.535271,1.50899 c -21.38373,0 -41.21865,10.98665 -58.69823,31.43027 0,9.2e-4 0,0.003 0,0.004 0,0.005 -0.009,0.009 -0.0129,0.0144 -17.33518,20.11441 -31.07222,45.36047 -41.31956,75.58999 -10.27263,30.30439 -15.39713,62.56072 -15.39713,96.67286 0,19.67784 3.75735,36.86079 11.50246,51.27175 2.8e-4,5e-4 -1.8e-4,0 0,0 3.7e-4,6e-4 0,0 0,0 4.07872,7.6002 9.52983,13.7701 16.24865,18.1852 7.34418,4.8263 17.20908,6.733 29.57815,6.733 13.22067,0 28.58341,-4.9275 46.6532,-14.2205 9.07988,-4.6696 16.05698,-9.1392 21.08278,-13.78215 5.0259,-4.64291 8.45756,-9.79233 8.45756,-15.74564 0,-4.01148 -0.99289,-7.99776 -3.77961,-10.94378 -2.78681,-2.94612 -6.84217,-4.13179 -10.79294,-4.13179 -4.43449,0 -8.43623,1.76099 -13.3546,4.4928 0,0 -0.009,0 -0.011,0.009 -4.57061,2.37089 -11.94928,6.26639 -22.26303,11.75576 -9.58538,5.02848 -18.45674,7.3887 -26.747,7.3887 -7.12858,0 -11.20187,-2.27882 -14.68044,-8.0318 -3.47517,-5.74764 -5.70129,-15.60527 -5.70543,-29.42362 l 0.90184,-33.12247 c 20.5448,-8.37607 38.95271,-17.2112 55.0748,-26.56194 17.40196,-10.09319 32.10641,-23.12679 43.96574,-38.99144 12.3686,-16.31828 18.51928,-36.33799 18.51928,-59.31082 0,-12.70479 -3.34897,-24.15201 -10.07966,-33.70992 -6.7512,-9.99189 -17.15628,-15.57142 -29.14162,-15.57142 z m 462.784298,0 c -22.355097,0 -43.317478,12.1557 -62.269518,34.75904 a 5.7703612,5.7703612 0 0 0 -0.0166,0.0215 c -18.62644,22.42077 -33.60526,50.05218 -45.02374,82.77391 a 5.7703612,5.7703612 0 0 0 -0.009,0.0248 c -11.24575,32.71492 -16.91521,64.46216 -16.91521,95.18541 0,17.15886 4.82631,32.95085 14.34813,46.78428 a 5.7703612,5.7703612 0 0 0 0.0506,0.07 c 10.05768,14.1554 25.5008,21.5427 44.19025,21.5427 18.64005,0 35.686148,-5.9593 50.366318,-17.596 a 5.7703612,5.7703612 0 0 0 0.03403,-0.027 c 14.459241,-11.63798 22.775156,-23.99647 22.775156,-37.19148 0,-4.0331 -1.374412,-8.22137 -4.485718,-10.94379 -3.111305,-2.72243 -7.149646,-3.62877 -11.34444,-3.62877 -5.276444,0 -10.110294,2.73999 -13.992367,6.82644 -3.228392,3.39827 -6.698039,7.20538 -10.404896,11.41627 -8.993965,9.92441 -17.710905,14.20254 -26.912185,14.20254 -9.83446,0 -15.93667,-2.9291 -20.43076,-9.07914 -4.49418,-6.15013 -7.25036,-16.37154 -7.25036,-30.92726 0,-20.26483 4.53263,-44.25537 13.77677,-71.83007 l 0,0 c 9.41283,-27.57709 20.84281,-50.88056 34.20394,-69.95108 l 0.009,-0.007 c 13.427719,-18.92584 25.542376,-26.9877 35.529696,-26.9877 3.492274,0 5.476126,0.8337 7.144404,2.42698 1.668187,1.59328 3.177621,4.38157 4.036502,8.96237 a 5.7703612,5.7703612 0 0 0 0,0.0162 c 1.124602,5.9038 3.002496,10.83604 6.287546,14.59955 3.28505,3.7635 8.198525,5.93719 13.212705,5.93719 4.986284,0 9.797131,-2.09695 13.510913,-5.59228 3.637643,-3.42366 6.091672,-7.92035 6.091681,-12.75461 0,-3.99552 -0.870038,-7.82324 -2.8689,-11.07137 a 5.7703612,5.7703612 0 0 0 -2.006606,-1.9599 c 0.07055,0.0412 -1.592435,-1.58764 -3.053921,-5.38749 l 0.08802,0.24611 c -1.536108,-4.60832 -2.910603,-8.39797 -4.162317,-11.43783 a 5.7703612,5.7703612 0 0 0 -0.06291,-0.14552 c -5.605988,-12.61349 -18.315689,-19.27385 -34.448267,-19.27385 z m 698.453802,3.7725 c -18.81988,0 -39.5693,14.43874 -64.80066,41.03395 -25.23373,26.42988 -47.17382,57.83468 -65.8372,94.14343 a 5.7703612,5.7703612 0 0 0 -0.004,0.009 c -18.52186,36.19414 -28.0494,67.09896 -28.0494,93.17342 0,13.08952 2.54033,23.694 8.61207,31.3225 6.07174,7.6285 15.56808,11.4198 26.5853,11.4198 11.27028,0 21.92812,-3.679 31.34403,-10.6887 10.01145,-7.3235 25.35853,-24.28108 48.07234,-52.0424 14.07098,-17.19786 26.3606,-34.88457 37.25247,-52.95143 -6.09515,31.42035 -9.25877,55.14802 -9.25877,71.1797 2e-5,11.01903 3.82545,21.47515 11.03006,30.71173 a 5.7703612,5.7703612 0 0 0 0.0449,0.056 c 7.42485,9.2811 16.7106,14.7415 26.8889,14.7415 5.3062,0 10.5094,-2.124 13.78577,-6.1563 a 5.7703612,5.7703612 0 0 0 0.10419,-0.1329 c 2.87608,-3.7611 4.45693,-8.3504 4.45693,-13.0619 0,-5.16522 -2.56509,-10.11413 -6.59468,-13.47681 -3.12032,-2.76529 -5.79639,-4.86255 -8.3408,-6.34678 l 0.29461,0.18331 c -1.00367,-0.66913 -1.75516,-1.16986 -2.63356,-1.75511 0.2056,-23.15456 2.78174,-50.87973 7.89888,-83.34163 5.3494,-33.93518 10.13769,-58.17443 14.18099,-72.24497 2.09838,-7.30233 3.67326,-12.84507 4.72999,-16.64931 0.52837,-1.90212 0.92507,-3.36551 1.20181,-4.42818 0.13837,-0.53134 0.24567,-0.95675 0.33234,-1.33116 0.0433,-0.1872 0.082,-0.35737 0.12215,-0.56946 0.0402,-0.21209 0.12575,-0.21734 0.12575,-1.25031 l 0,-2.0138 c 0,-4.7769 -1.37736,-9.44069 -4.73538,-12.65581 -3.35801,-3.21513 -7.99428,-4.43179 -12.85522,-4.43179 -0.18468,0 -0.36318,0.0663 -0.5479,0.0718 -0.26358,-2.34396 -0.44024,-4.80271 -0.79582,-7.02582 l -0.002,-0.007 c -1.2593,-7.93356 -4.77193,-14.70881 -10.55041,-19.13732 -5.7803,-4.4299 -13.3386,-6.34677 -22.0583,-6.34677 z m -1168.28013,32.165 c 4.46907,0 6.62253,1.06256 8.21511,2.9641 1.59249,1.90153 2.86526,5.48395 2.86526,11.38574 0,16.8484 -3.98481,30.15303 -11.69652,40.58663 a 5.7703612,5.7703612 0 0 0 -0.009,0.011 c -7.7911,10.59603 -18.99978,20.06359 -33.86262,28.3027 -6.60128,3.63033 -13.37097,7.09593 -20.3086,10.39956 -3.38816,1.61337 -6.6137,3.39506 -9.92699,5.08569 0.37242,-1.35952 0.61432,-2.45846 1.07779,-3.99171 a 5.7703612,5.7703612 0 0 0 0.009,-0.0147 c 8.74756,-29.21364 19.75536,-52.49181 32.792,-69.87377 13.17138,-17.56196 24.24964,-24.85535 30.84816,-24.85535 z m 946.44495,5.02999 c 2.68368,0 4.27616,0.5967 5.59406,1.64193 1.3179,1.04523 2.54384,2.78528 3.47249,5.83659 a 5.7703612,5.7703612 0 0 0 0.0108,0.0341 c 2.06677,6.64318 3.26231,16.48942 3.26231,29.22246 0,12.63589 -0.90445,24.5711 -2.69644,35.81179 -6.4513,40.36088 -17.8318,73.93505 -33.95782,100.81174 a 5.7703612,5.7703612 0 0 0 -0.004,0.009 c -11.79334,19.70938 -22.82564,27.87694 -32.27279,27.87694 -4.834,0 -7.44377,-1.67877 -10.2486,-7.63124 -2.80484,-5.95247 -4.60424,-16.22851 -4.60424,-30.36316 0,-11.15157 1.23589,-29.27048 3.74195,-53.99702 a 5.7703612,5.7703612 0 0 0 0.002,0 c 2.39918,-23.83179 12.08754,-48.21084 29.43443,-73.24918 8.72963,-12.60035 16.55995,-21.9174 23.18647,-27.84643 6.62651,-5.92903 11.89319,-8.15038 15.07919,-8.15038 z m 221.58368,2.51499 c 1.20206,0 1.15967,-0.11672 2.06948,1.42996 1.20057,2.04096 1.71739,3.95563 1.71739,6.12941 0,2.57858 -0.42686,6.07146 -1.37068,10.31865 a 5.7703612,5.7703612 0 0 0 -0.0413,0.20121 c -0.0451,0.24311 -2.27478,6.42276 -6.3324,14.99301 -4.05581,8.56636 -9.98675,20.40822 -17.76125,35.45602 -27.2452,52.33076 -57.95117,93.04594 -91.95543,122.28625 a 5.7703612,5.7703612 0 0 0 -0.31797,0.2946 c -1.51799,1.51799 -2.84799,2.08208 -5.2258,2.08208 -1.45142,0 -1.34136,-0.16298 -1.42457,-0.26232 -0.0832,-0.0992 -0.60179,-0.97661 -0.60179,-3.27309 0,-18.91921 5.9778,-41.74063 18.32174,-68.23901 12.37229,-26.55918 27.78511,-51.11704 46.25615,-73.71449 l 0.009,-0.011 c 0.003,0 0.005,-0.009 0.007,-0.009 18.7136,-22.68538 34.44681,-37.26032 46.08011,-43.6064 6.3e-4,-3.5e-4 9.2e-4,-0.002 0.002,-0.002 5.49724,-2.98246 9.58073,-4.0743 10.56837,-4.0743 z"
         style="font-style:normal;font-variant:normal;font-weight:normal;font-stretch:normal;font-size:medium;line-height:125%;font-family:'Bad Script';-inkscape-font-specification:'Bad Script';letter-spacing:0px;word-spacing:0px;fill:#950058;fill-opacity:1;stroke:none;stroke-width:1px;stroke-linecap:butt;stroke-linejoin:miter;stroke-opacity:1" />
    </g>
  </g>
</svg>
